<?xml version="1.0" encoding="utf-8"?>
<!-- Generator: Adobe Illustrator 20.1.0, SVG Export Plug-In . SVG Version: 6.00 Build 0)  -->
<svg version="1.1" id="Layer_1" xmlns="http://www.w3.org/2000/svg" xmlns:xlink="http://www.w3.org/1999/xlink" x="0px" y="0px"
	 viewBox="0 0 330 75.5" style="enable-background:new 0 0 330 75.5;" xml:space="preserve">
<style type="text/css">
	.st0{fill:#FFFFFF;}
</style>
<g>
	<polygon class="st0" points="34.1,34 35.9,32.2 35.9,27.7 34.1,29.5 	"/>
	<polygon class="st0" points="28,10.7 29.9,8.9 25.4,8.9 23.6,10.7 	"/>
	<path class="st0" d="M43.4,49.1l1.9-1.9c-0.4,0-0.8,0.1-1.3,0.1h-3.2L39,49.1H43.4z"/>
	<polygon class="st0" points="34.1,53.6 35.9,51.7 35.9,49.1 38.5,49.1 40.4,47.3 35.9,47.3 34.1,49.1 	"/>
	<polygon class="st0" points="18.9,10.5 18.9,15 20.7,13.1 20.7,10.7 23.1,10.7 25,8.9 20.5,8.9 	"/>
	<polygon class="st0" points="18.9,63.9 20.7,62 20.7,57.6 18.9,59.4 	"/>
	<path class="st0" d="M43.7,10.7c1.2,0,2.4,0.1,3.6,0.4l1.5-1.5C47.5,9.3,46.2,9,44.9,9l-1.8,1.8H43.7z"/>
	<polygon class="st0" points="18.9,8.9 18.9,10.1 20.1,8.9 	"/>
	<polygon class="st0" points="34.1,47.3 34.1,48.7 35.5,47.3 	"/>
	<polygon class="st0" points="34.1,24.2 36.2,22.1 34.1,22.1 	"/>
	<polygon class="st0" points="37.8,10.7 39.6,8.9 35.2,8.9 33.3,10.7 	"/>
	<polygon class="st0" points="32.9,10.7 34.7,8.9 30.3,8.9 28.5,10.7 	"/>
	<polygon class="st0" points="18.9,39.4 20.7,37.6 20.7,33.1 18.9,35 	"/>
	<path class="st0" d="M42.7,10.7l1.8-1.8c-0.3,0-0.5,0-0.8,0h-3.6l-1.8,1.8H42.7z"/>
	<polygon class="st0" points="34.1,64.3 33.6,64.3 31.8,66.1 35.9,66.1 35.9,61.9 34.1,63.8 	"/>
	<polygon class="st0" points="20.7,13.6 18.9,15.4 18.9,19.9 20.7,18 	"/>
	<polygon class="st0" points="22,66.1 26.4,66.1 28.3,64.3 23.8,64.3 	"/>
	<path class="st0" d="M61.2,26.5l1.6-1.6c-0.2-1.1-0.6-2.2-1-3.2c0-0.1,0-0.1-0.1-0.2l-1.4,1.4C60.7,24.1,61,25.3,61.2,26.5z"/>
	<path class="st0" d="M60.1,35.8c-0.4,1-0.9,2-1.4,2.9l3.5-3.5c0.5-1.8,0.9-3.6,0.9-5.4l-2,2C60.9,33.2,60.6,34.5,60.1,35.8z"/>
	<path class="st0" d="M61.4,29c0,0.8-0.1,1.5-0.2,2.3l2-2c0-0.1,0-0.2,0-0.3c0-1.2-0.1-2.5-0.4-3.7l-1.6,1.6
		C61.3,27.6,61.4,28.3,61.4,29z"/>
	<polygon class="st0" points="20.7,18.5 18.9,20.3 18.9,24.8 20.7,22.9 	"/>
	<path class="st0" d="M60,22.4c0,0.1,0.1,0.2,0.1,0.3l1.4-1.4c-0.4-1-0.9-2-1.5-2.9l-1.3,1.3C59.2,20.5,59.7,21.4,60,22.4z"/>
	<path class="st0" d="M56.4,16.5C56.4,16.5,56.4,16.5,56.4,16.5l1.4-1.2c0,0,0,0,0,0c-0.7-0.8-1.5-1.5-2.3-2.1l-1.3,1.3
		C54.9,15,55.7,15.7,56.4,16.5z"/>
	<polygon class="st0" points="20.7,28.2 18.9,30.1 18.9,34.5 20.7,32.7 	"/>
	<path class="st0" d="M56.6,41.7c-0.9,1-2,1.9-3.1,2.7l-3.9,3.9c0.8-0.2,1.6-0.5,2.3-0.9c2.4-1.1,4.4-2.6,6.1-4.5
		c1.6-1.9,3-4,3.9-6.4c0.1-0.2,0.1-0.4,0.2-0.6L58,39.9C57.5,40.5,57.1,41.1,56.6,41.7z"/>
	<polygon class="st0" points="21.5,66.1 23.4,64.3 20.7,64.3 20.7,62.5 18.9,64.3 18.9,66.1 	"/>
	<path class="st0" d="M51.1,12.5c1,0.5,1.9,1.1,2.8,1.7l1.3-1.3c-0.8-0.6-1.7-1.2-2.7-1.8L51.1,12.5z"/>
	<polygon class="st0" points="20.7,23.4 18.9,25.2 18.9,29.6 20.7,27.8 	"/>
	<polygon class="st0" points="34.1,54 34.1,58.4 35.9,56.6 35.9,52.2 	"/>
	<polygon class="st0" points="26.9,66.1 31.3,66.1 33.2,64.3 28.7,64.3 	"/>
	<polygon class="st0" points="18.9,44.3 20.7,42.5 20.7,38 18.9,39.9 	"/>
	<path class="st0" d="M45.8,47.2l-1.9,1.9H44c1.7,0,3.4-0.2,4.9-0.7l3.3-3.3c-0.4,0.2-0.8,0.4-1.2,0.6C49.5,46.5,47.7,47,45.8,47.2z
		"/>
	<path class="st0" d="M42.6,24c0.4,0,0.8,0.1,1.2,0.3l1.3-1.3c-0.8-0.5-1.7-0.8-2.5-0.8h-1.2L39.6,24H42.6z"/>
	<polygon class="st0" points="18.9,49.2 20.7,47.4 20.7,42.9 18.9,44.7 	"/>
	<path class="st0" d="M44.8,25c0.5,0.4,0.8,1.2,1,2.2l1.5-1.5c-0.3-0.9-0.7-1.5-1.3-2c-0.2-0.2-0.4-0.4-0.7-0.5l-1.3,1.3
		C44.3,24.6,44.6,24.8,44.8,25z"/>
	<polygon class="st0" points="34.1,58.9 34.1,63.3 35.9,61.5 35.9,57 	"/>
	<path class="st0" d="M58.5,19.3l1.3-1.3c-0.6-0.9-1.2-1.7-1.9-2.5l-1.3,1.3C57.3,17.6,58,18.4,58.5,19.3z"/>
	<path class="st0" d="M49,9.7l-1.5,1.5c1.1,0.3,2.2,0.6,3.2,1.1c0,0,0.1,0,0.1,0.1l1.3-1.4c-0.2-0.1-0.4-0.2-0.6-0.3
		C50.7,10.3,49.9,10,49,9.7z"/>
	<path class="st0" d="M43,35.8c1.2,0,2.3-0.5,3.3-1.6c0.8-0.8,1.2-2,1.4-3.7l-5.2,5.2H43z"/>
	<polygon class="st0" points="34.1,35.8 37.1,35.8 39,34 35.9,34 35.9,32.6 34.1,34.4 	"/>
	<polygon class="st0" points="34.1,24.7 34.1,29.1 35.9,27.3 35.9,24 39.2,24 41,22.1 36.6,22.1 	"/>
	<polygon class="st0" points="18.9,54.5 18.9,59 20.7,57.2 20.7,52.7 	"/>
	<path class="st0" d="M45.9,29c0,1.9-0.3,3-0.7,3.6l2.5-2.4c0-0.4,0-0.7,0-1.1c0-1.2-0.1-2.2-0.4-3l-1.6,1.6
		C45.9,28,45.9,28.5,45.9,29z"/>
	<polygon class="st0" points="18.9,49.6 18.9,54.1 20.7,52.3 20.7,47.8 	"/>
	<path class="st0" d="M39.4,34l-1.8,1.8H42l2.2-2.2C43.9,33.9,43.5,34,43,34H39.4z"/>
	<polygon class="st0" points="33.6,64.3 34.1,63.8 34.1,63.3 33.2,64.3 	"/>
	<path class="st0" d="M53.5,44.4l4.5-4.5c0.3-0.4,0.5-0.8,0.8-1.2l-6.4,6.4C52.7,44.9,53.1,44.6,53.5,44.4z"/>
	<polygon class="st0" points="34.1,63.3 34.1,63.8 35.9,61.9 35.9,61.5 	"/>
	<polygon class="st0" points="33.2,64.3 31.3,66.1 31.8,66.1 33.6,64.3 	"/>
	<path class="st0" d="M58,39.9l4.1-4.1c0.1-0.2,0.1-0.4,0.2-0.6l-3.5,3.5C58.5,39.1,58.2,39.5,58,39.9z"/>
	<path class="st0" d="M52.3,45.1L49,48.4c0.2-0.1,0.4-0.1,0.6-0.2l3.9-3.9C53.1,44.6,52.7,44.9,52.3,45.1z"/>
	<path class="st0" d="M45.8,47.2l15.4-15.4c0-0.2,0-0.3,0.1-0.5L45.3,47.2C45.5,47.2,45.6,47.2,45.8,47.2z"/>
	<polygon class="st0" points="28.3,64.3 28.7,64.3 34.1,58.9 34.1,58.4 	"/>
	<polygon class="st0" points="34.1,58.4 34.1,58.9 35.9,57 35.9,56.6 	"/>
	<polygon class="st0" points="26.4,66.1 26.9,66.1 28.7,64.3 28.3,64.3 	"/>
	<path class="st0" d="M43.9,49.1l1.9-1.9c-0.1,0-0.3,0-0.5,0l-1.9,1.9H43.9z"/>
	<path class="st0" d="M61.1,31.8l2-2c0-0.2,0-0.3,0-0.5l-2,2C61.2,31.5,61.2,31.6,61.1,31.8z"/>
	<polygon class="st0" points="23.8,64.3 34.1,54 34.1,53.6 23.4,64.3 	"/>
	<path class="st0" d="M40.8,47.3l20.4-20.4c0-0.1,0-0.3-0.1-0.4L40.4,47.3H40.8z"/>
	<polygon class="st0" points="35.9,52.2 35.9,51.7 34.1,53.6 34.1,54 	"/>
	<polygon class="st0" points="23.8,64.3 23.4,64.3 21.5,66.1 22,66.1 	"/>
	<path class="st0" d="M61.2,26.8l1.6-1.6c0-0.1-0.1-0.2-0.1-0.3l-1.6,1.6C61.2,26.6,61.2,26.7,61.2,26.8z"/>
	<polygon class="st0" points="39,49.1 40.8,47.3 40.4,47.3 38.5,49.1 	"/>
	<polygon class="st0" points="34.1,49.1 34.1,48.7 20.7,62 20.7,62.5 	"/>
	<path class="st0" d="M35.9,47.3l24.3-24.3c0-0.1-0.1-0.2-0.1-0.3L35.5,47.3H35.9z"/>
	<polygon class="st0" points="35.9,47.3 35.5,47.3 34.1,48.7 34.1,49.1 	"/>
	<path class="st0" d="M60.2,22.9l1.4-1.4c0-0.1-0.1-0.2-0.1-0.3l-1.4,1.4C60.2,22.7,60.2,22.8,60.2,22.9z"/>
	<polygon class="st0" points="18.9,64.3 20.7,62.5 20.7,62 18.9,63.9 	"/>
	<path class="st0" d="M47.7,30.6l11-11c-0.1-0.1-0.1-0.2-0.2-0.3L47.7,30.1C47.7,30.3,47.7,30.4,47.7,30.6z"/>
	<polygon class="st0" points="20.7,57.2 20.7,57.6 42.5,35.8 42,35.8 	"/>
	<path class="st0" d="M58.7,19.6l1.3-1.3c-0.1-0.1-0.1-0.2-0.2-0.3l-1.3,1.3C58.6,19.4,58.6,19.5,58.7,19.6z"/>
	<polygon class="st0" points="18.9,59 18.9,59.4 20.7,57.6 20.7,57.2 	"/>
	<path class="st0" d="M45,33c-0.2,0.3-0.5,0.4-0.7,0.6L42,35.8h0.4l5.2-5.2c0-0.2,0-0.3,0-0.5l-2.5,2.4C45.2,32.8,45.1,32.9,45,33z"
		/>
	<polygon class="st0" points="20.7,52.3 20.7,52.7 37.6,35.8 37.1,35.8 	"/>
	<path class="st0" d="M47.4,26l9.2-9.2c-0.1-0.1-0.1-0.2-0.2-0.2l-9.1,9.1C47.4,25.8,47.4,25.9,47.4,26z"/>
	<path class="st0" d="M45.9,27.5l1.6-1.6c0-0.1-0.1-0.2-0.1-0.3l-1.5,1.5C45.8,27.3,45.8,27.4,45.9,27.5z"/>
	<polygon class="st0" points="18.9,54.1 18.9,54.5 20.7,52.7 20.7,52.3 	"/>
	<path class="st0" d="M56.6,16.8l1.3-1.3c-0.1-0.1-0.1-0.2-0.2-0.2l-1.3,1.3C56.5,16.6,56.5,16.7,56.6,16.8z"/>
	<polygon class="st0" points="37.6,35.8 39.4,34 39,34 37.1,35.8 	"/>
	<polygon class="st0" points="20.7,47.8 34.1,34.4 34.1,34 20.7,47.4 	"/>
	<path class="st0" d="M45.4,23.1l8.7-8.7c-0.1-0.1-0.2-0.1-0.2-0.2l-8.7,8.7C45.2,23,45.3,23.1,45.4,23.1z"/>
	<path class="st0" d="M44.1,24.4l1.3-1.3c-0.1-0.1-0.2-0.1-0.3-0.2l-1.3,1.3C43.9,24.3,44,24.4,44.1,24.4z"/>
	<path class="st0" d="M53.9,14.2c0.1,0.1,0.2,0.1,0.2,0.2l1.3-1.3c-0.1-0.1-0.2-0.1-0.2-0.2L53.9,14.2z"/>
	<polygon class="st0" points="34.1,34.4 35.9,32.6 35.9,32.2 34.1,34 	"/>
	<polygon class="st0" points="20.7,47.8 20.7,47.4 18.9,49.2 18.9,49.6 	"/>
	<polygon class="st0" points="20.7,42.9 34.1,29.5 34.1,29.1 20.7,42.5 	"/>
	<path class="st0" d="M41,22.1h0.4l9.6-9.6c-0.1,0-0.2-0.1-0.3-0.2L41,22.1z"/>
	<polygon class="st0" points="18.9,44.7 20.7,42.9 20.7,42.5 18.9,44.3 	"/>
	<polygon class="st0" points="39.2,24 39.6,24 41.5,22.1 41,22.1 	"/>
	<polygon class="st0" points="35.9,27.7 35.9,27.3 34.1,29.1 34.1,29.5 	"/>
	<path class="st0" d="M51.1,12.5l1.3-1.3c-0.1-0.1-0.2-0.1-0.3-0.2l-1.3,1.4C50.9,12.4,51,12.5,51.1,12.5z"/>
	<path class="st0" d="M36.2,22.1h0.4l11-11c-0.1,0-0.2-0.1-0.3-0.1L36.2,22.1z"/>
	<polygon class="st0" points="20.7,37.6 20.7,38 34.1,24.7 34.1,24.2 	"/>
	<polygon class="st0" points="18.9,39.9 20.7,38 20.7,37.6 18.9,39.4 	"/>
	<polygon class="st0" points="34.1,24.7 36.6,22.1 36.2,22.1 34.1,24.2 	"/>
	<path class="st0" d="M47.2,11.1c0.1,0,0.2,0.1,0.3,0.1L49,9.7c-0.1,0-0.2-0.1-0.3-0.1L47.2,11.1z"/>
	<polygon class="st0" points="20.7,33.1 43.1,10.7 42.7,10.7 20.7,32.7 	"/>
	<polygon class="st0" points="18.9,34.5 18.9,35 20.7,33.1 20.7,32.7 	"/>
	<path class="st0" d="M43.1,10.7L44.9,9c-0.1,0-0.3,0-0.4,0l-1.8,1.8H43.1z"/>
	<polygon class="st0" points="20.7,28.2 38.2,10.7 37.8,10.7 20.7,27.8 	"/>
	<polygon class="st0" points="20.7,27.8 18.9,29.6 18.9,30.1 20.7,28.2 	"/>
	<polygon class="st0" points="38.2,10.7 40.1,8.9 39.6,8.9 37.8,10.7 	"/>
	<polygon class="st0" points="20.7,23.4 33.3,10.7 32.9,10.7 20.7,22.9 	"/>
	<polygon class="st0" points="33.3,10.7 35.2,8.9 34.7,8.9 32.9,10.7 	"/>
	<polygon class="st0" points="20.7,22.9 18.9,24.8 18.9,25.2 20.7,23.4 	"/>
	<polygon class="st0" points="20.7,18.5 28.5,10.7 28,10.7 20.7,18 	"/>
	<polygon class="st0" points="20.7,18 18.9,19.9 18.9,20.3 20.7,18.5 	"/>
	<polygon class="st0" points="28.5,10.7 30.3,8.9 29.9,8.9 28,10.7 	"/>
	<polygon class="st0" points="23.6,10.7 23.1,10.7 20.7,13.1 20.7,13.6 	"/>
	<polygon class="st0" points="23.6,10.7 25.4,8.9 25,8.9 23.1,10.7 	"/>
	<polygon class="st0" points="20.7,13.6 20.7,13.1 18.9,15 18.9,15.4 	"/>
	<polygon class="st0" points="18.9,10.1 18.9,10.5 20.5,8.9 20.1,8.9 	"/>
	<path class="st0" d="M7,9.7V9.4c23.8-0.1,45.3-0.2,65.7-0.3l0,0.3C52.3,9.5,30.8,9.6,7,9.7z"/>
	<path class="st0" d="M7,65.7v-0.3c23.8,0,45.3-0.1,65.7-0.2l0,0.3C52.3,65.6,30.8,65.7,7,65.7z"/>
	<rect x="61.7" y="3.7" class="st0" width="0.3" height="68"/>
	<rect x="19.3" y="3.7" class="st0" width="0.3" height="68"/>
	<path class="st0" d="M72.6,23.3C52.2,23.1,30.7,23,7,23v-0.3c23.7,0.1,45.2,0.1,65.7,0.3L72.6,23.3z"/>
	<path class="st0" d="M65.5,51.8C47.3,51.7,28.2,51.6,7,51.5v-0.3c21.2,0,40.3,0.1,58.5,0.2L65.5,51.8z"/>
	<path class="st0" d="M7,38.3V38c20.9-0.1,39.8-0.1,57.8-0.3l0,0.3C46.8,38.2,27.9,38.2,7,38.3z"/>
	<path class="st0" d="M68,56.5C49,56.4,29.1,56.3,7,56.3V56c22.1,0,42.1,0.1,61,0.2L68,56.5z"/>
	<rect x="35.1" y="3.7" class="st0" width="0.3" height="68"/>
	<rect x="46" y="3.7" class="st0" width="0.3" height="68"/>
</g>
<g>
	<path class="st0" d="M90.6,16.9c0.3,0,0.6,0,0.9,0c0.3,0,0.6,0,1,0L66.5,42.9c0-0.4,0-0.7,0-1c0-0.3,0-0.5,0-0.9L90.6,16.9z
		 M94.2,17c0.6,0.1,1.1,0.2,1.6,0.2l-29,29c-0.1-0.5-0.2-1-0.2-1.6L94.2,17z M66.6,38.9c0.1-0.8,0.2-1.5,0.4-2.2l19.2-19.3
		c0.7-0.1,1.5-0.3,2.2-0.3L66.6,38.9z M97.4,17.6c0.5,0.1,1,0.3,1.5,0.4L67.6,49.3c-0.2-0.5-0.3-1-0.4-1.5L97.4,17.6z M80.5,19.4
		c1-0.5,2.1-0.9,3.1-1.3L67.7,34c0.3-1.1,0.8-2.2,1.3-3.2L80.5,19.4z M68.7,52c-0.2-0.4-0.4-0.8-0.6-1.3l13-13.1
		c-0.3,0.8-0.5,1.7-0.7,2.5L68.7,52z M80.4,42.3c0,0.6,0.1,1.1,0.2,1.7L70,54.6c-0.2-0.4-0.5-0.8-0.7-1.2L80.4,42.3z M81,45.5
		c0.1,0.4,0.3,0.9,0.6,1.3L71.5,56.8c-0.3-0.3-0.5-0.7-0.8-1.1L81,45.5z M82.2,48c0.2,0.4,0.5,0.7,0.8,1.1l-9.8,9.8
		c-0.3-0.3-0.6-0.7-0.9-1L82.2,48z M84,50.1c0.3,0.3,0.7,0.6,1,0.8l-9.9,9.8c-0.3-0.3-0.7-0.6-1-0.9L84,50.1z M86.2,51.6
		c0.4,0.2,0.8,0.4,1.3,0.6L77.3,62.4c-0.3-0.2-0.7-0.5-1.1-0.8L86.2,51.6z M88.9,52.6c0.5,0.1,1.1,0.2,1.6,0.3L79.6,63.8
		c-0.4-0.2-0.8-0.5-1.2-0.7L88.9,52.6z M92.5,52.9c0.8-0.1,1.6-0.2,2.4-0.5L82.2,65c-0.4-0.2-0.9-0.3-1.3-0.6L92.5,52.9z M115.1,34
		c0.2,0.5,0.3,0.9,0.4,1.4L85,66c-0.5-0.1-0.9-0.3-1.4-0.4L115.1,34z M88.2,66.6c-0.5-0.1-1.1-0.2-1.6-0.2L115.9,37
		c0.1,0.5,0.2,1.1,0.2,1.6L88.2,66.6z M100.3,18.5c0.4,0.2,0.9,0.3,1.3,0.5L89.8,30.9c-0.9,0.1-1.7,0.4-2.5,0.7L100.3,18.5z
		 M91.8,66.8c-0.2,0-0.4,0-0.4,0c-0.5,0-1,0-1.5,0l26.4-26.4c0,0.5,0,1,0,1.5v0.4L91.8,66.8z M102.9,19.7c0.4,0.2,0.8,0.5,1.2,0.7
		L93.5,31c-0.5-0.1-1.1-0.2-1.7-0.2L102.9,19.7z M96,66.4c-0.7,0.1-1.4,0.2-2.2,0.3l22.4-22.4c-0.1,0.7-0.2,1.4-0.3,2.2L96,66.4z
		 M105.3,21.1c0.4,0.3,0.7,0.5,1.1,0.8l-10,10.1c-0.4-0.2-0.9-0.4-1.3-0.6L105.3,21.1z M107.5,22.8c0.3,0.3,0.7,0.6,1,0.9l-9.8,9.8
		c-0.3-0.3-0.7-0.6-1.1-0.8L107.5,22.8z M101.5,64.7c-1,0.4-2,0.8-3,1.1L115.3,49c-0.3,1-0.7,2-1.1,3L101.5,64.7z M109.4,24.6
		c0.3,0.3,0.6,0.7,0.9,1l-9.8,9.9c-0.3-0.4-0.6-0.7-0.8-1L109.4,24.6z M111.2,26.6c0.3,0.3,0.5,0.7,0.8,1.1l-10.2,10.2
		c-0.2-0.4-0.4-0.9-0.6-1.3L111.2,26.6z M114,31.3c0.2,0.4,0.4,0.9,0.6,1.3L102,45.2c0.3-0.7,0.4-1.5,0.5-2.3L114,31.3z M112.7,28.9
		c0.2,0.4,0.5,0.8,0.7,1.2L102.5,41c0-0.6-0.1-1.1-0.2-1.6L112.7,28.9z M111.6,56.4c-1.6,2.2-3.4,4.1-5.6,5.6L111.6,56.4z"/>
	<path class="st0" d="M144.8,16.9c0.5,0,1.1,0,1.6,0.1l-25.9,25.9V41l24.1-24.1H144.8z M140.9,16.9h1.9l-22.2,22.2v-1.9L140.9,16.9z
		 M120.6,33.4l16.5-16.5h1.9l-18.4,18.4V33.4z M135.2,16.9l-14.6,14.6v-1.9l12.7-12.7H135.2z M129.5,16.9h1.9l-10.8,10.8v-1.9
		L129.5,16.9z M120.6,22.1l5.2-5.2h1.9l-7,7V22.1z M121.9,16.9h1.9l-3.2,3.2v-1.9L121.9,16.9z M134.4,32.8l-13.9,13.9v-1.9
		l13.9-13.9V32.8z M120.6,48.6l13.9-13.9v1.9l-13.9,13.9V48.6z M120.6,52.4l13.9-13.9v1.9l-13.9,13.9V52.4z M144.8,40.5
		c0.3,0,0.7,0,1-0.1l-25.2,25.3v-1.9l23.3-23.3H144.8z M120.6,60l19.5-19.5h1.9l-21.4,21.4V60z M120.6,56.2l15.7-15.7h1.9L120.6,58
		V56.2z M161.4,26.8c0.2,0.4,0.4,0.8,0.6,1.3l-26.3,26.3h-1.2v1.2l-11.3,11.3h-1.9L161.4,26.8z M134.4,59.3l-7.5,7.5h-1.9l9.4-9.4
		V59.3z M134.4,63.1l-3.7,3.7h-1.9l5.6-5.6V63.1z M134.4,66.8h-1.8l1.8-1.8V66.8z M148.2,17.2c0.5,0.1,1,0.2,1.5,0.3l-13.2,13.2
		h-1.9L148.2,17.2z M139.4,54.3h-1.9l24.9-24.9c0.2,0.5,0.3,1,0.5,1.4L139.4,54.3z M151.2,18c0.5,0.2,0.9,0.3,1.3,0.6l-12.2,12.2
		h-1.9L151.2,18z M163.3,32.4c0.1,0.6,0.2,1.1,0.2,1.7l-22.3,22.3l-0.7-1.2L163.3,32.4z M142.6,58.7l-0.7-1.2l21.6-21.6
		c0,0.7,0,1.3-0.1,2L142.6,58.7z M153.8,19.2c0.4,0.2,0.8,0.4,1.2,0.7l-10.9,10.9h-1.9L153.8,19.2z M144.1,61.1l-0.7-1.2L163,40.3
		c-0.3,1-0.6,1.9-1,2.9L144.1,61.1z M145.5,63.5l-0.7-1.2l10.1-10.1l0.7,1.2L145.5,63.5z M156.1,20.7c0.4,0.3,0.7,0.5,1,0.8
		l-9.9,9.9c-0.4-0.2-0.9-0.4-1.3-0.5L156.1,20.7z M146.9,65.8l-0.7-1.2l10.1-10.1l0.7,1.2L146.9,65.8z M157.7,56.9l0.7,1.2l-8.7,8.7
		h-1.9L157.7,56.9z M158.1,22.4c0.3,0.3,0.6,0.7,0.9,1l-9.9,9.9c-0.2-0.4-0.5-0.8-0.8-1.1L158.1,22.4z M149.6,36.6
		c0.1-0.3,0.1-0.7,0.1-1c0-0.3,0-0.6-0.1-0.9l10.3-10.2c0.3,0.3,0.5,0.7,0.7,1.1L149.6,36.6z M153.5,66.8h-1.9l7.5-7.5l0.7,1.2
		L153.5,66.8z M157.3,66.8h-1.9l5.1-5.1l0.7,1.2L157.3,66.8z M161.1,66.8h-1.9l2.7-2.7l0.7,1.2L161.1,66.8z M163.3,66.5l0.2,0.3H163
		L163.3,66.5z"/>
	<path class="st0" d="M180.9,16.9l-13.2,13.2v-1.9l11.3-11.3H180.9z M177.1,16.9l-9.4,9.4v-1.9l7.5-7.5H177.1z M173.3,16.9l-5.6,5.6
		v-1.9l3.7-3.7H173.3z M169.6,16.9l-1.8,1.8v-1.8H169.6z M184.7,16.9l-13.9,13.9H169l13.9-13.9H184.7z M188.5,16.9l-13.9,13.9h-1.9
		l13.9-13.9H188.5z M192.3,16.9l-13.9,13.9h-1.9l13.9-13.9H192.3z M196.1,16.9l-13.9,13.9h-1.9l13.9-13.9H196.1z M211.2,16.9
		l-13.9,13.9h-0.5v0.5L183,45.1v-1.9l26.4-26.4H211.2z M207.4,16.9L183,41.3v-1.9l22.6-22.6H207.4z M203.7,16.9L183,37.6v-1.9
		l18.8-18.8H203.7z M199.9,16.9L183,33.8v-1.9l15-15H199.9z M183,47.1l13.9-13.9V35L183,48.9V47.1z M196.9,38.8L183,52.7v-1.9
		L196.9,37V38.8z M183,54.6l13.9-13.9v1.9L183,56.5V54.6z M183,58.4l13.9-13.9v1.9L183,60.3V58.4z M183,62.2l13.9-13.9v1.9L183,64.1
		V62.2z M196.9,52.2V54L184,66.8h-1V66L196.9,52.2z M196.9,55.9v1.9l-9,9H186L196.9,55.9z M196.9,59.7v1.9l-5.2,5.2h-1.9L196.9,59.7
		z M196.9,63.5v1.9l-1.4,1.4h-1.9L196.9,63.5z M212.1,17.9v1.9l-11,11h-1.9L212.1,17.9z M212.1,21.7v1.9l-7.2,7.2h-1.9L212.1,21.7z
		 M212.1,25.5v1.9l-3.4,3.4h-1.9L212.1,25.5z M212.1,29.3v1.4h-1.4L212.1,29.3z"/>
	<path class="st0" d="M230.2,16.9v1.3L216.3,32v-1.9l13.3-13.3H230.2z M227.7,16.9l-11.4,11.4v-1.9l9.5-9.5H227.7z M223.9,16.9
		l-7.6,7.6v-1.9l5.7-5.7H223.9z M220.1,16.9l-3.8,3.8v-1.9l1.9-1.9H220.1z M230.2,20.1V22l-13.9,13.9V34L230.2,20.1z M230.2,23.9
		v1.9l-13.9,13.9v-1.9L230.2,23.9z M230.2,27.7v1.9l-13.9,13.9v-1.9L230.2,27.7z M230.2,31.5v1.9l-13.9,13.9v-1.9L230.2,31.5z
		 M230.2,35.3v1.9L216.3,51v-1.9L230.2,35.3z M230.2,39.1v1.9l-13.9,13.9v-1.9L230.2,39.1z M230.2,42.9v1.9l-13.9,13.9v-1.9
		L230.2,42.9z M230.2,46.6v1.9l-13.9,13.9v-1.9L230.2,46.6z M230.2,50.4v1.9l-13.9,13.9v-1.9L230.2,50.4z M230.2,54.2v1.9
		l-10.7,10.7h-1.9L230.2,54.2z M230.2,58v1.9l-6.9,6.9h-1.9L230.2,58z M230.2,61.8v1.9l-3.1,3.1h-1.9L230.2,61.8z M230.2,65.6v1.2
		h-1.2L230.2,65.6z"/>
	<path class="st0" d="M259.3,16.9c0.6,0,1.2,0,1.8,0l-26.7,26.7c0-0.6-0.1-1.2-0.1-1.8L259.3,16.9z M234.4,39.9
		c0.1-0.7,0.2-1.4,0.3-2.1l20.5-20.5c0.7-0.1,1.4-0.2,2.1-0.2L234.4,39.9z M262.8,17.2c0.5,0.1,1,0.2,1.6,0.3L234.9,47
		c-0.1-0.5-0.2-1.1-0.3-1.6L262.8,17.2z M249.9,18.7c0.9-0.4,1.9-0.7,2.8-0.9l-17.5,17.5c0.3-1,0.6-1.9,1-2.8L249.9,18.7z M266,17.8
		c0.5,0.1,0.9,0.3,1.4,0.5l-14.7,14.7c-0.5,0.3-0.9,0.7-1.3,1.1c-0.4,0.4-0.8,0.8-1.1,1.3L235.7,50c-0.1-0.5-0.3-0.9-0.4-1.4
		L266,17.8z M248.6,39c-0.2,0.7-0.3,1.5-0.3,2.2l-11.5,11.4c-0.2-0.4-0.4-0.8-0.6-1.3L248.6,39z M248.3,43.1
		c0.1,0.5,0.2,1.1,0.3,1.6l-10.4,10.4c-0.2-0.4-0.5-0.8-0.7-1.2L248.3,43.1z M238.2,28.5c1-1.6,2.1-3,3.4-4.3
		c1.3-1.3,2.7-2.4,4.3-3.4L238.2,28.5z M249.1,46.1c0.2,0.4,0.4,0.8,0.6,1.3l-10,9.9c-0.3-0.3-0.5-0.7-0.8-1L249.1,46.1z
		 M250.4,48.5c0.3,0.3,0.5,0.7,0.8,1l-9.8,9.8c-0.3-0.3-0.6-0.7-0.9-1L250.4,48.5z M243.5,61.2c-0.3-0.3-0.7-0.6-1-0.9l9.8-9.8
		c0.3,0.3,0.7,0.5,1.1,0.8L243.5,61.2z M245.6,62.8c-0.4-0.3-0.7-0.5-1.1-0.8l10.1-10.1c0.4,0.2,0.9,0.4,1.4,0.5L245.6,62.8z
		 M248,64.2c-0.4-0.2-0.8-0.4-1.2-0.7l10.7-10.7c0.6,0.1,1.1,0.1,1.7,0.1L248,64.2z M250.7,65.3c-0.5-0.2-0.9-0.3-1.3-0.5l12-12
		c1-0.2,1.9-0.5,2.8-0.9L250.7,65.3z M267.7,50.2l0.9,0.9l-15,15c-0.5-0.1-1-0.2-1.5-0.4L267.7,50.2z M269.6,52.1l0.9,0.9
		l-13.7,13.7c-0.5-0.1-1.1-0.2-1.6-0.2L269.6,52.1z M258.7,30.8c-0.7,0-1.5,0.2-2.2,0.3l12.4-12.4c0.4,0.2,0.8,0.4,1.3,0.6
		L258.7,30.8z M271.5,54l0.9,0.9l-11.8,11.8c-0.4,0-0.9,0-1.3,0c-0.2,0-0.4,0-0.6,0L271.5,54z M271.4,20c0.4,0.2,0.8,0.5,1.2,0.7
		l-10.4,10.4c-0.5-0.1-1-0.2-1.6-0.3L271.4,20z M274.3,56.9l-9.3,9.3c-0.7,0.2-1.5,0.3-2.3,0.4l10.6-10.6L274.3,56.9z M273.7,21.5
		c0.4,0.3,0.7,0.5,1.1,0.8l-10,9.9c-0.4-0.2-0.8-0.4-1.3-0.6L273.7,21.5z M275.8,23.1c0.3,0.3,0.6,0.6,0.9,0.9l-9.8,9.8
		c-0.3-0.3-0.7-0.6-1-0.9L275.8,23.1z M276.2,58.7l-5.1,5.1c-1.1,0.6-2.2,1.1-3.4,1.5l7.6-7.6L276.2,58.7z"/>
	<path class="st0" d="M298.8,16.9c0.3,0,0.6,0,0.9,0c0.3,0,0.6,0,1,0l-25.9,25.9c0-0.4,0-0.7,0-1c0-0.3,0-0.5,0-0.9L298.8,16.9z
		 M302.4,17c0.6,0.1,1.1,0.2,1.6,0.2l-29,29c-0.1-0.5-0.2-1-0.2-1.6L302.4,17z M274.9,38.9c0.1-0.8,0.2-1.5,0.4-2.2l19.2-19.3
		c0.7-0.1,1.5-0.3,2.2-0.3L274.9,38.9z M305.6,17.6c0.5,0.1,1,0.3,1.5,0.4l-31.3,31.3c-0.2-0.5-0.3-1-0.4-1.5L305.6,17.6z
		 M288.7,19.4c1-0.5,2.1-0.9,3.1-1.3L275.9,34c0.3-1.1,0.8-2.2,1.3-3.2L288.7,19.4z M276.9,52c-0.2-0.4-0.4-0.8-0.6-1.3l13-13.1
		c-0.3,0.8-0.5,1.7-0.7,2.5L276.9,52z M288.6,42.3c0,0.6,0.1,1.1,0.2,1.7l-10.6,10.6c-0.2-0.4-0.5-0.8-0.7-1.2L288.6,42.3z
		 M289.2,45.5c0.1,0.4,0.3,0.9,0.6,1.3l-10.1,10.1c-0.3-0.3-0.5-0.7-0.8-1.1L289.2,45.5z M290.4,48c0.2,0.4,0.5,0.7,0.8,1.1
		l-9.8,9.8c-0.3-0.3-0.6-0.7-0.9-1L290.4,48z M292.2,50.1c0.3,0.3,0.7,0.6,1,0.8l-9.9,9.8c-0.3-0.3-0.7-0.6-1-0.9L292.2,50.1z
		 M294.4,51.6c0.4,0.2,0.8,0.4,1.3,0.6l-10.2,10.2c-0.3-0.2-0.7-0.5-1.1-0.8L294.4,51.6z M297.1,52.6c0.5,0.1,1.1,0.2,1.6,0.3
		l-10.9,10.9c-0.4-0.2-0.8-0.5-1.2-0.7L297.1,52.6z M300.7,52.9c0.8-0.1,1.6-0.2,2.4-0.5L290.4,65c-0.4-0.2-0.9-0.3-1.3-0.6
		L300.7,52.9z M323.3,34c0.2,0.5,0.3,0.9,0.4,1.4L293.3,66c-0.5-0.1-0.9-0.3-1.4-0.4L323.3,34z M296.4,66.6
		c-0.5-0.1-1.1-0.2-1.6-0.2L324.1,37c0.1,0.5,0.2,1.1,0.2,1.6L296.4,66.6z M308.5,18.5c0.4,0.2,0.9,0.3,1.3,0.5L298,30.9
		c-0.9,0.1-1.7,0.4-2.5,0.7L308.5,18.5z M300,66.8c-0.2,0-0.4,0-0.4,0c-0.5,0-1,0-1.5,0l26.4-26.4c0,0.5,0,1,0,1.5v0.4L300,66.8z
		 M311.1,19.7c0.4,0.2,0.8,0.5,1.2,0.7L301.7,31c-0.5-0.1-1.1-0.2-1.7-0.2L311.1,19.7z M304.2,66.4c-0.7,0.1-1.4,0.2-2.2,0.3
		l22.4-22.4c-0.1,0.7-0.2,1.4-0.3,2.2L304.2,66.4z M313.5,21.1c0.4,0.3,0.7,0.5,1.1,0.8l-10,10.1c-0.4-0.2-0.9-0.4-1.3-0.6
		L313.5,21.1z M315.7,22.8c0.3,0.3,0.7,0.6,1,0.9l-9.8,9.8c-0.3-0.3-0.7-0.6-1.1-0.8L315.7,22.8z M309.7,64.7c-1,0.4-2,0.8-3,1.1
		L323.6,49c-0.3,1-0.7,2-1.1,3L309.7,64.7z M317.7,24.6c0.3,0.3,0.6,0.7,0.9,1l-9.8,9.9c-0.3-0.4-0.6-0.7-0.8-1L317.7,24.6z
		 M319.4,26.6c0.3,0.3,0.5,0.7,0.8,1.1L310,37.9c-0.2-0.4-0.4-0.9-0.6-1.3L319.4,26.6z M322.3,31.3c0.2,0.4,0.4,0.9,0.6,1.3
		l-12.6,12.6c0.3-0.7,0.4-1.5,0.5-2.3L322.3,31.3z M320.9,28.9c0.2,0.4,0.5,0.8,0.7,1.2L310.7,41c0-0.6-0.1-1.1-0.2-1.6L320.9,28.9z
		 M319.9,56.4c-1.6,2.2-3.4,4.1-5.6,5.6L319.9,56.4z"/>
</g>
</svg>
