<svg id="Layer_1" data-name="Layer 1" xmlns="http://www.w3.org/2000/svg" viewBox="0 0 330 75.46"><defs><style>.cls-1{fill:#0e5263;}</style></defs><title>logo</title><polygon class="cls-1" points="34.08 34 35.91 32.16 35.91 27.71 34.08 29.54 34.08 34"/><polygon class="cls-1" points="28.02 10.72 29.86 8.89 25.4 8.89 23.57 10.72 28.02 10.72"/><path class="cls-1" d="M43.43,49.09l1.9-1.9c-.43,0-.85.06-1.28.06H40.81L39,49.09Z"/><polygon class="cls-1" points="34.08 53.55 35.91 51.72 35.91 49.09 38.54 49.09 40.38 47.26 35.92 47.26 34.08 49.1 34.08 53.55"/><polygon class="cls-1" points="18.87 10.53 18.87 14.98 20.71 13.15 20.71 10.72 23.14 10.72 24.97 8.89 20.51 8.89 18.87 10.53"/><polygon class="cls-1" points="18.87 63.87 20.71 62.04 20.71 57.58 18.87 59.41 18.87 63.87"/><path class="cls-1" d="M43.65,10.72a16.91,16.91,0,0,1,3.55.37L48.7,9.6A18.11,18.11,0,0,0,44.89,9l-1.77,1.77Z"/><polygon class="cls-1" points="18.87 8.89 18.87 10.09 20.08 8.89 18.87 8.89"/><polygon class="cls-1" points="34.08 47.26 34.08 48.66 35.49 47.26 34.08 47.26"/><polygon class="cls-1" points="34.08 24.22 36.16 22.15 34.08 22.15 34.08 24.22"/><polygon class="cls-1" points="37.8 10.72 39.63 8.89 35.18 8.89 33.34 10.72 37.8 10.72"/><polygon class="cls-1" points="32.91 10.72 34.75 8.89 30.29 8.89 28.46 10.72 32.91 10.72"/><polygon class="cls-1" points="18.87 39.43 20.71 37.59 20.71 33.14 18.87 34.97 18.87 39.43"/><path class="cls-1" d="M42.69,10.72l1.79-1.79c-.28,0-.55,0-.83,0H40.07l-1.83,1.83Z"/><polygon class="cls-1" points="34.08 64.26 33.58 64.26 31.75 66.09 35.91 66.09 35.91 61.93 34.08 63.76 34.08 64.26"/><polygon class="cls-1" points="20.71 13.58 18.87 15.41 18.87 19.87 20.71 18.04 20.71 13.58"/><polygon class="cls-1" points="21.97 66.09 26.43 66.09 28.26 64.26 23.8 64.26 21.97 66.09"/><path class="cls-1" d="M61.16,26.47l1.57-1.57a20.6,20.6,0,0,0-1-3.23l-.07-.16-1.42,1.42A18.19,18.19,0,0,1,61.16,26.47Z"/><path class="cls-1" d="M60.11,35.8a19.8,19.8,0,0,1-1.39,2.89l3.53-3.53a20.75,20.75,0,0,0,.92-5.38l-2,2A19.14,19.14,0,0,1,60.11,35.8Z"/><path class="cls-1" d="M61.38,29a18.87,18.87,0,0,1-.16,2.32l2-2c0-.11,0-.23,0-.34a18.65,18.65,0,0,0-.39-3.75l-1.6,1.6A16.62,16.62,0,0,1,61.38,29Z"/><polygon class="cls-1" points="20.71 18.47 18.87 20.3 18.87 24.76 20.71 22.93 20.71 18.47"/><path class="cls-1" d="M60,22.35c0,.09.06.17.09.26l1.4-1.4A21.83,21.83,0,0,0,60,18.27l-1.34,1.34A20.15,20.15,0,0,1,60,22.35Z"/><path class="cls-1" d="M56.35,16.47l.07.08,1.3-1.3v0a19.73,19.73,0,0,0-2.3-2.12l-1.3,1.3A17.92,17.92,0,0,1,56.35,16.47Z"/><polygon class="cls-1" points="20.71 28.25 18.87 30.08 18.87 34.54 20.71 32.7 20.71 28.25"/><path class="cls-1" d="M56.58,41.68a16.43,16.43,0,0,1-3.12,2.7l-3.89,3.89a17.09,17.09,0,0,0,2.31-.87A18.64,18.64,0,0,0,58,42.89a21.06,21.06,0,0,0,3.87-6.44c.08-.21.14-.43.22-.65L58,39.89A18.67,18.67,0,0,1,56.58,41.68Z"/><polygon class="cls-1" points="21.54 66.09 23.37 64.26 20.71 64.26 20.71 62.47 18.87 64.3 18.87 66.09 21.54 66.09"/><path class="cls-1" d="M51.11,12.51a19.31,19.31,0,0,1,2.75,1.71l1.3-1.3a20.94,20.94,0,0,0-2.7-1.76Z"/><polygon class="cls-1" points="20.71 23.36 18.87 25.19 18.87 29.65 20.71 27.82 20.71 23.36"/><polygon class="cls-1" points="34.08 53.98 34.08 58.44 35.91 56.61 35.91 52.15 34.08 53.98"/><polygon class="cls-1" points="26.86 66.09 31.32 66.09 33.15 64.26 28.69 64.26 26.86 66.09"/><polygon class="cls-1" points="18.87 44.32 20.71 42.48 20.71 38.03 18.87 39.86 18.87 44.32"/><path class="cls-1" d="M45.78,47.17l-1.92,1.92H44A19,19,0,0,0,49,48.44l3.33-3.33c-.39.22-.79.44-1.2.64A15.92,15.92,0,0,1,45.78,47.17Z"/><path class="cls-1" d="M42.64,24a2.62,2.62,0,0,1,1.16.3l1.34-1.34a4.64,4.64,0,0,0-2.5-.79H41.48L39.64,24Z"/><polygon class="cls-1" points="18.87 49.2 20.71 47.37 20.71 42.91 18.87 44.75 18.87 49.2"/><path class="cls-1" d="M44.84,25a3.68,3.68,0,0,1,1,2.17l1.52-1.52a4.56,4.56,0,0,0-1.26-2,7.28,7.28,0,0,0-.66-.51l-1.32,1.32A5.07,5.07,0,0,1,44.84,25Z"/><polygon class="cls-1" points="34.08 58.87 34.08 63.33 35.91 61.5 35.91 57.04 34.08 58.87"/><path class="cls-1" d="M58.51,19.34,59.84,18a21,21,0,0,0-1.92-2.53l-1.3,1.3A19.23,19.23,0,0,1,58.51,19.34Z"/><path class="cls-1" d="M49,9.7l-1.48,1.48a15.34,15.34,0,0,1,3.18,1.13l.09.05L52.18,11c-.21-.11-.42-.24-.64-.35A17.08,17.08,0,0,0,49,9.7Z"/><path class="cls-1" d="M43,35.83a4.46,4.46,0,0,0,3.28-1.58,6.12,6.12,0,0,0,1.38-3.66l-5.23,5.23Z"/><polygon class="cls-1" points="34.08 35.83 37.13 35.83 38.97 34 35.91 34 35.91 32.6 34.08 34.43 34.08 35.83"/><polygon class="cls-1" points="34.08 24.65 34.08 29.11 35.91 27.28 35.91 23.98 39.21 23.98 41.04 22.15 36.59 22.15 34.08 24.65"/><polygon class="cls-1" points="18.87 54.53 18.87 58.98 20.71 57.15 20.71 52.69 18.87 54.53"/><path class="cls-1" d="M45.94,29a7.35,7.35,0,0,1-.66,3.59l2.45-2.45c0-.36,0-.74,0-1.14a11.27,11.27,0,0,0-.35-3l-1.56,1.56A12,12,0,0,1,45.94,29Z"/><polygon class="cls-1" points="18.87 49.64 18.87 54.09 20.71 52.26 20.71 47.8 18.87 49.64"/><path class="cls-1" d="M39.4,34l-1.83,1.83H42l2.24-2.24A2.24,2.24,0,0,1,43,34Z"/><polygon class="cls-1" points="33.58 64.26 34.08 63.76 34.08 63.33 33.15 64.26 33.58 64.26"/><path class="cls-1" d="M53.46,44.38,58,39.89c.27-.39.53-.79.77-1.2L52.3,45.11C52.7,44.88,53.09,44.64,53.46,44.38Z"/><polygon class="cls-1" points="34.08 63.33 34.08 63.76 35.91 61.93 35.91 61.5 34.08 63.33"/><polygon class="cls-1" points="33.15 64.26 31.32 66.09 31.75 66.09 33.58 64.26 33.15 64.26"/><path class="cls-1" d="M58,39.89,62,35.8c.07-.21.15-.43.21-.65l-3.53,3.53C58.48,39.11,58.22,39.5,58,39.89Z"/><path class="cls-1" d="M52.3,45.11,49,48.44l.6-.16,3.89-3.89C53.09,44.64,52.7,44.88,52.3,45.11Z"/><path class="cls-1" d="M45.78,47.17,61.15,31.81c0-.17,0-.33.07-.5L45.33,47.19Z"/><polygon class="cls-1" points="28.26 64.26 28.69 64.26 34.08 58.87 34.08 58.44 28.26 64.26"/><polygon class="cls-1" points="34.08 58.44 34.08 58.87 35.91 57.04 35.91 56.61 34.08 58.44"/><polygon class="cls-1" points="26.43 66.09 26.86 66.09 28.69 64.26 28.26 64.26 26.43 66.09"/><path class="cls-1" d="M43.86,49.09l1.92-1.92-.45,0-1.9,1.9Z"/><path class="cls-1" d="M61.15,31.81l2-2c0-.15,0-.3,0-.45l-2,2C61.2,31.47,61.17,31.64,61.15,31.81Z"/><polygon class="cls-1" points="23.8 64.26 34.08 53.98 34.08 53.55 23.37 64.26 23.8 64.26"/><path class="cls-1" d="M40.81,47.26,61.22,26.85c0-.13,0-.25-.06-.37L40.38,47.26Z"/><polygon class="cls-1" points="35.91 52.15 35.91 51.72 34.08 53.55 34.08 53.98 35.91 52.15"/><polygon class="cls-1" points="23.8 64.26 23.37 64.26 21.54 66.09 21.97 66.09 23.8 64.26"/><path class="cls-1" d="M61.22,26.85l1.6-1.6c0-.12-.06-.23-.09-.35l-1.57,1.57C61.18,26.6,61.2,26.72,61.22,26.85Z"/><polygon class="cls-1" points="38.97 49.09 40.81 47.26 40.38 47.26 38.54 49.09 38.97 49.09"/><polygon class="cls-1" points="34.08 49.1 34.08 48.66 20.71 62.04 20.71 62.47 34.08 49.1"/><path class="cls-1" d="M35.92,47.26,60.25,22.93c0-.11-.07-.21-.11-.32L35.49,47.26Z"/><polygon class="cls-1" points="35.92 47.26 35.49 47.26 34.08 48.66 34.08 49.1 35.92 47.26"/><path class="cls-1" d="M60.25,22.93l1.42-1.42-.14-.3-1.4,1.4C60.17,22.72,60.21,22.83,60.25,22.93Z"/><polygon class="cls-1" points="18.87 64.3 20.71 62.47 20.71 62.04 18.87 63.87 18.87 64.3"/><path class="cls-1" d="M47.69,30.6l11-11-.16-.28L47.73,30.13C47.72,30.29,47.71,30.45,47.69,30.6Z"/><polygon class="cls-1" points="20.71 57.15 20.71 57.58 42.45 35.83 42.02 35.83 20.71 57.15"/><path class="cls-1" d="M58.67,19.62,60,18.27,59.84,18l-1.33,1.33Z"/><polygon class="cls-1" points="18.87 58.98 18.87 59.41 20.71 57.58 20.71 57.15 18.87 58.98"/><path class="cls-1" d="M45,33a3.81,3.81,0,0,1-.72.6L42,35.83h.43l5.23-5.23c0-.15,0-.31,0-.47l-2.45,2.45A2.25,2.25,0,0,1,45,33Z"/><polygon class="cls-1" points="20.71 52.26 20.71 52.69 37.57 35.83 37.13 35.83 20.71 52.26"/><path class="cls-1" d="M47.41,26l9.2-9.2-.2-.24-9.1,9.1C47.35,25.76,47.38,25.87,47.41,26Z"/><path class="cls-1" d="M45.85,27.55,47.41,26c0-.11-.06-.23-.1-.33L45.8,27.17C45.82,27.29,45.84,27.42,45.85,27.55Z"/><polygon class="cls-1" points="18.87 54.09 18.87 54.53 20.71 52.69 20.71 52.26 18.87 54.09"/><path class="cls-1" d="M56.62,16.78l1.3-1.3-.2-.24-1.3,1.3Z"/><polygon class="cls-1" points="37.57 35.83 39.4 34 38.97 34 37.13 35.83 37.57 35.83"/><polygon class="cls-1" points="20.71 47.8 34.08 34.43 34.08 34 20.71 47.37 20.71 47.8"/><path class="cls-1" d="M45.4,23.11l8.7-8.7-.24-.19-8.72,8.72Z"/><path class="cls-1" d="M44.07,24.44l1.32-1.32-.25-.18L43.8,24.28Z"/><path class="cls-1" d="M53.86,14.22l.24.19,1.3-1.3-.24-.19Z"/><polygon class="cls-1" points="34.08 34.43 35.91 32.6 35.91 32.16 34.08 34 34.08 34.43"/><polygon class="cls-1" points="20.71 47.8 20.71 47.37 18.87 49.2 18.87 49.64 20.71 47.8"/><polygon class="cls-1" points="20.71 42.91 34.08 29.54 34.08 29.11 20.71 42.48 20.71 42.91"/><path class="cls-1" d="M41,22.15h.43l9.64-9.64-.28-.15Z"/><polygon class="cls-1" points="18.87 44.75 20.71 42.91 20.71 42.48 18.87 44.32 18.87 44.75"/><polygon class="cls-1" points="39.21 23.98 39.64 23.98 41.48 22.15 41.04 22.15 39.21 23.98"/><polygon class="cls-1" points="35.91 27.71 35.91 27.28 34.08 29.11 34.08 29.54 35.91 27.71"/><path class="cls-1" d="M51.11,12.51l1.35-1.35L52.18,11l-1.35,1.35Z"/><path class="cls-1" d="M36.16,22.15h.43l11-11-.35-.08Z"/><polygon class="cls-1" points="20.71 37.59 20.71 38.03 34.08 24.65 34.08 24.22 20.71 37.59"/><polygon class="cls-1" points="18.87 39.86 20.71 38.03 20.71 37.59 18.87 39.43 18.87 39.86"/><polygon class="cls-1" points="34.08 24.65 36.59 22.15 36.16 22.15 34.08 24.22 34.08 24.65"/><path class="cls-1" d="M47.21,11.1l.35.08L49,9.7l-.34-.1Z"/><polygon class="cls-1" points="20.71 33.14 43.12 10.72 42.69 10.72 20.71 32.7 20.71 33.14"/><polygon class="cls-1" points="18.87 34.54 18.87 34.97 20.71 33.14 20.71 32.7 18.87 34.54"/><path class="cls-1" d="M43.12,10.72,44.89,9l-.41,0-1.79,1.79Z"/><polygon class="cls-1" points="20.71 28.25 38.23 10.72 37.8 10.72 20.71 27.82 20.71 28.25"/><polygon class="cls-1" points="20.71 27.82 18.87 29.65 18.87 30.08 20.71 28.25 20.71 27.82"/><polygon class="cls-1" points="38.23 10.72 40.07 8.89 39.63 8.89 37.8 10.72 38.23 10.72"/><polygon class="cls-1" points="20.71 23.36 33.34 10.72 32.91 10.72 20.71 22.93 20.71 23.36"/><polygon class="cls-1" points="33.34 10.72 35.18 8.89 34.75 8.89 32.91 10.72 33.34 10.72"/><polygon class="cls-1" points="20.71 22.93 18.87 24.76 18.87 25.19 20.71 23.36 20.71 22.93"/><polygon class="cls-1" points="20.71 18.47 28.46 10.72 28.02 10.72 20.71 18.04 20.71 18.47"/><polygon class="cls-1" points="20.71 18.04 18.87 19.87 18.87 20.3 20.71 18.47 20.71 18.04"/><polygon class="cls-1" points="28.46 10.72 30.29 8.89 29.86 8.89 28.02 10.72 28.46 10.72"/><polygon class="cls-1" points="23.57 10.72 23.14 10.72 20.71 13.15 20.71 13.58 23.57 10.72"/><polygon class="cls-1" points="23.57 10.72 25.4 8.89 24.97 8.89 23.14 10.72 23.57 10.72"/><polygon class="cls-1" points="20.71 13.58 20.71 13.15 18.87 14.98 18.87 15.41 20.71 13.58"/><polygon class="cls-1" points="18.87 10.09 18.87 10.53 20.51 8.89 20.08 8.89 18.87 10.09"/><path class="cls-1" d="M7,9.68v-.3c23.83-.06,45.31-.16,65.67-.32v.3C52.29,9.51,30.81,9.62,7,9.68Z"/><path class="cls-1" d="M7,65.73v-.3c23.79,0,45.27-.09,65.67-.17v.3C52.25,65.64,30.77,65.7,7,65.73Z"/><rect class="cls-1" x="61.7" y="3.66" width="0.3" height="68.04"/><rect class="cls-1" x="19.28" y="3.66" width="0.3" height="68.04"/><path class="cls-1" d="M72.64,23.25C52.16,23.11,30.68,23,7,23v-.3c23.7.05,45.18.15,65.67.29Z"/><path class="cls-1" d="M65.49,51.78c-18.19-.11-37.33-.19-58.52-.23v-.3c21.19,0,40.33.12,58.52.23Z"/><path class="cls-1" d="M7,38.29V38c20.93-.05,39.84-.14,57.82-.27V38C46.82,38.15,27.9,38.24,7,38.29Z"/><path class="cls-1" d="M68,56.52c-18.94-.1-38.9-.17-61-.21V56c22.1,0,42.05.11,61,.21Z"/><rect class="cls-1" x="35.11" y="3.66" width="0.3" height="68.04"/><rect class="cls-1" x="46.04" y="3.66" width="0.3" height="68.04"/><path class="cls-1" d="M90.55,16.89h.87c.3,0,.64,0,1,0L66.5,42.86c0-.37,0-.71,0-1V41Zm3.67.14q.84.1,1.64.24l-29,29q-.14-.77-.24-1.61ZM66.64,38.92A22.18,22.18,0,0,1,67,36.69L86.26,17.41q1.08-.21,2.23-.35Zm30.79-21.3q.73.18,1.47.42L67.62,49.32q-.24-.73-.42-1.47Zm-17,1.82a23,23,0,0,1,3.14-1.29L67.72,34A22.18,22.18,0,0,1,69,30.85ZM68.66,52a12.59,12.59,0,0,1-.56-1.29l13-13.06a10.51,10.51,0,0,0-.66,2.55Zm11.7-9.78a12.65,12.65,0,0,0,.17,1.68L70,54.56q-.35-.59-.66-1.22ZM81,45.48a7,7,0,0,0,.56,1.29L71.46,56.83q-.38-.52-.77-1.08ZM82.21,48a8.61,8.61,0,0,0,.8,1.08L73.2,58.89q-.45-.49-.87-1ZM84,50.06q.49.42,1,.84l-9.88,9.85q-.49-.42-1-.87Zm2.23,1.57q.59.31,1.26.59L77.25,62.38q-.52-.35-1.08-.77Zm2.72,1a9.67,9.67,0,0,0,1.64.28L79.63,63.85q-.63-.35-1.19-.7Zm3.56.24a10.25,10.25,0,0,0,2.37-.49L82.21,65q-.66-.24-1.33-.56ZM115.13,34a14.86,14.86,0,0,1,.42,1.43L85,66q-.7-.17-1.43-.42ZM88.22,66.6q-.8-.1-1.61-.24L115.93,37q.14.8.24,1.61Zm12.11-48.07q.66.24,1.29.52l-11.8,11.8a12.57,12.57,0,0,0-2.55.7ZM91.81,66.81h-.38q-.7,0-1.47,0l26.39-26.39q0,.77,0,1.47v.38Zm11.1-47.13,1.22.7L93.52,31a9.72,9.72,0,0,0-1.68-.21ZM96,66.39q-1.08.21-2.16.31l22.45-22.45q-.1,1.08-.31,2.16Zm9.32-45.28,1.08.77-10,10.05a8.13,8.13,0,0,0-1.33-.56Zm2.16,1.64q.49.42,1,.87l-9.81,9.81a8.77,8.77,0,0,0-1.08-.8Zm-6,41.93a28.42,28.42,0,0,1-3,1.08L115.34,49a28.37,28.37,0,0,1-1.08,3Zm7.92-40.11q.45.49.87,1l-9.85,9.88q-.42-.56-.84-1Zm1.75,2q.42.52.8,1.08L101.8,37.87q-.28-.66-.59-1.29ZM114,31.31q.31.66.56,1.33L102,45.24a9.71,9.71,0,0,0,.49-2.34Zm-1.33-2.44q.35.56.7,1.19L102.49,41a12.78,12.78,0,0,0-.24-1.64Zm-1.08,27.58a24.16,24.16,0,0,1-5.59,5.62Z"/><path class="cls-1" d="M144.84,16.89q.8,0,1.64.07l-25.9,25.9V41L144.7,16.89Zm-3.95,0h1.89l-22.2,22.2V37.21ZM120.58,33.4l16.55-16.51H139l-18.4,18.4Zm14.59-16.51L120.58,31.48V29.63l12.74-12.74Zm-5.66,0h1.89L120.58,27.71V25.83Zm-8.94,5.17,5.17-5.17h1.85l-7,7Zm1.36-5.17h1.89l-3.25,3.25V18.25Zm12.5,15.88L120.58,46.67V44.78l13.86-13.86ZM120.58,48.59l13.86-13.86v1.85L120.58,50.44Zm0,3.77L134.44,38.5v1.89L120.58,54.25Zm24.26-11.9a4.66,4.66,0,0,0,1-.1L120.58,65.63V63.74l23.29-23.29ZM120.58,60l19.48-19.52h1.89L120.58,61.82Zm0-3.81,15.71-15.71h1.85L120.58,58Zm40.78-29.4q.31.63.59,1.26L135.66,54.32h-1.22v1.22L123.16,66.81h-1.85ZM134.44,59.34,127,66.81h-1.89l9.36-9.36Zm0,3.77-3.7,3.7h-1.85l5.55-5.55Zm0,3.7h-1.78L134.44,65Zm13.76-49.64q.73.14,1.5.35L136.5,30.75h-1.89Zm-8.76,37.15h-1.85l24.93-24.93q.24.73.45,1.43ZM151.16,18a11.34,11.34,0,0,1,1.33.56L140.27,30.75h-1.85Zm12.15,14.42q.14.84.21,1.68L141.25,56.34l-.7-1.19ZM142.64,58.71l-.7-1.19,21.61-21.61a14.89,14.89,0,0,1-.14,2Zm11.14-39.55q.59.31,1.19.7L144.07,30.75h-1.89Zm-9.71,41.93-.7-1.19L163,40.32a20.8,20.8,0,0,1-1,2.86Zm1.4,2.37-.7-1.15L154.9,52.19l.7,1.15Zm10.61-42.8a9.41,9.41,0,0,1,1,.84l-9.91,9.88a5.48,5.48,0,0,0-1.33-.52Zm-9.22,45.18-.7-1.15,10.12-10.12.7,1.15Zm10.86-8.9.7,1.19-8.73,8.69h-1.85Zm.38-34.53q.49.49.91,1L149.1,33.3a5.1,5.1,0,0,0-.77-1.08Zm-8.52,14.17a4.65,4.65,0,0,0,.1-1,6,6,0,0,0-.07-.91l10.26-10.23q.38.52.73,1.08Zm3.91,30.23h-1.89l7.51-7.51.7,1.19Zm3.77,0h-1.85l5.13-5.13.66,1.19Zm3.81,0h-1.85l2.72-2.72.7,1.15Zm2.27-.35.21.35H163Z"/><path class="cls-1" d="M180.91,16.89,167.74,30.05V28.2l11.31-11.31Zm-3.77,0-9.39,9.39V24.4l7.51-7.51Zm-3.81,0-5.59,5.59V20.63l3.74-3.74Zm-3.77,0-1.82,1.82V16.89Zm15.15,0L170.85,30.75H169l13.89-13.86Zm3.81,0L174.62,30.75h-1.85l13.86-13.86Zm3.77,0L178.43,30.75h-1.89l13.89-13.86Zm3.81,0L182.23,30.75h-1.89l13.86-13.86Zm15.15,0L197.38,30.75h-.52v.52L183,45.13V43.28l26.39-26.39Zm-3.81,0L183,41.33V39.48l22.59-22.59Zm-3.77,0L183,37.56V35.67l18.78-18.78Zm-3.81,0L183,33.75V31.9l15-15ZM183,47.05l13.86-13.86V35L183,48.94Zm13.86-8.2L183,52.71V50.86L196.86,37ZM183,54.63l13.86-13.86v1.89L183,56.51Zm0,3.81,13.86-13.86v1.85L183,60.29Zm0,3.77,13.86-13.86v1.89L183,64.09Zm13.86-10.05V54L184,66.81h-1V66Zm0,3.77v1.89l-9,9H186Zm0,3.81v1.85l-5.2,5.24h-1.89Zm0,3.81v1.85l-1.43,1.43h-1.85Zm15.26-45.59v1.85l-11,11H199.3Zm0,3.77v1.89L205,30.75h-1.89Zm0,3.81V27.4l-3.35,3.35h-1.89Zm0,3.81v1.43h-1.43Z"/><path class="cls-1" d="M230.17,16.89v1.29L216.31,32V30.19l13.3-13.3Zm-2.48,0L216.31,28.27V26.39l9.5-9.5Zm-3.81,0-7.58,7.58V22.62L222,16.89Zm-3.77,0-3.81,3.81V18.81l1.92-1.92Zm10.05,3.21V22L216.31,35.85V34Zm0,3.81v1.85L216.31,39.62V37.77Zm0,3.77v1.89L216.31,43.42V41.57Zm0,3.81v1.85L216.31,47.23V45.34Zm0,3.77v1.89L216.31,51V49.15Zm0,3.81v1.89L216.31,54.8V52.92Zm0,3.81v1.85L216.31,58.57V56.72Zm0,3.77v1.89L216.31,62.38V60.49Zm0,3.81v1.85L216.31,66.15V64.3Zm0,3.77V56.1L219.45,66.81H217.6Zm0,3.81v1.85l-6.91,6.95h-1.89Zm0,3.77v1.89L227,66.81h-1.85Zm0,3.81v1.22h-1.22Z"/><path class="cls-1" d="M259.32,16.93q.87,0,1.78,0L234.42,43.67q-.07-.91-.07-1.82ZM234.42,39.86q.1-1.08.28-2.13l20.46-20.49q1-.17,2.13-.24Zm28.42-22.69q.77.1,1.61.28L234.88,47q-.17-.8-.28-1.57Zm-13,1.57a22.57,22.57,0,0,1,2.83-.94L235.23,35.25q.42-1.43,1-2.83ZM266,17.8l1.43.45L252.75,32.91A8.43,8.43,0,0,0,251.46,34a12.09,12.09,0,0,0-1.12,1.29L235.68,50q-.21-.7-.42-1.43ZM248.6,39a11.77,11.77,0,0,0-.35,2.23L236.8,52.64q-.31-.63-.59-1.29Zm-.31,4.08q.1.8.28,1.61L238.12,55.12q-.35-.59-.66-1.19ZM238.23,28.48a23.29,23.29,0,0,1,3.42-4.26,25,25,0,0,1,4.26-3.42Zm10.82,17.63q.28.63.63,1.26l-10,9.95q-.42-.52-.8-1Zm1.4,2.41a11.36,11.36,0,0,0,.84,1l-9.81,9.81-.91-1Zm-7,12.64q-.52-.42-1-.87l9.85-9.85a10,10,0,0,0,1.08.8Zm2.16,1.61L244.55,62,254.6,51.91a9.66,9.66,0,0,0,1.36.52Zm2.41,1.4q-.59-.31-1.19-.66l10.68-10.68a10.39,10.39,0,0,0,1.71.14Zm2.65,1.12q-.7-.24-1.33-.52l12-12a9.84,9.84,0,0,0,2.76-.91Zm17-15,.94.94-15,15q-.77-.17-1.5-.38Zm1.92,1.89.94.94L256.87,66.71l-1.64-.24ZM258.65,30.79a12.43,12.43,0,0,0-2.23.35l12.39-12.36,1.29.59ZM271.47,54l.94.91L260.57,66.78q-.66,0-1.26,0h-.63Zm-.1-34q.63.35,1.19.7L262.11,31.13a8.94,8.94,0,0,0-1.57-.28Zm2.93,36.87L265,66.15a18.55,18.55,0,0,1-2.27.42l10.65-10.65Zm-.59-35.4q.56.38,1.08.8l-10,9.95a7.82,7.82,0,0,0-1.26-.59Zm2.13,1.68q.49.45.94.91L267,33.86a8.82,8.82,0,0,0-1-.87Zm.35,35.61L271,63.88a24.11,24.11,0,0,1-3.35,1.5l7.58-7.58Z"/><path class="cls-1" d="M298.77,16.89h.87c.3,0,.64,0,1,0L274.71,42.86c0-.37,0-.71,0-1V41Zm3.67.14q.84.1,1.64.24l-29,29q-.14-.77-.24-1.61ZM274.85,38.92a22.35,22.35,0,0,1,.38-2.23l19.24-19.27q1.08-.21,2.23-.35Zm30.79-21.3q.73.18,1.47.42L275.83,49.32q-.24-.73-.42-1.47Zm-17,1.82a23,23,0,0,1,3.14-1.29L275.93,34a22.18,22.18,0,0,1,1.29-3.18ZM276.88,52a12.71,12.71,0,0,1-.56-1.29l13-13.06a10.54,10.54,0,0,0-.66,2.55Zm11.7-9.78a12.75,12.75,0,0,0,.17,1.68L278.17,54.56q-.35-.59-.66-1.22Zm.59,3.21a7,7,0,0,0,.56,1.29L279.67,56.83q-.38-.52-.77-1.08ZM290.42,48a8.67,8.67,0,0,0,.8,1.08l-9.81,9.81q-.45-.49-.87-1Zm1.75,2.06q.49.42,1,.84l-9.88,9.85q-.49-.42-1-.87Zm2.23,1.57q.59.31,1.26.59L285.47,62.38q-.52-.35-1.08-.77Zm2.72,1a9.67,9.67,0,0,0,1.64.28L287.84,63.85q-.63-.35-1.19-.7Zm3.56.24a10.25,10.25,0,0,0,2.37-.49L290.42,65q-.66-.24-1.33-.56ZM323.34,34a14.53,14.53,0,0,1,.42,1.43L293.25,66q-.7-.17-1.43-.42ZM296.43,66.6q-.8-.1-1.61-.24L324.15,37q.14.8.24,1.61Zm12.11-48.07q.66.24,1.29.52L298,30.85a12.57,12.57,0,0,0-2.55.7ZM300,66.81h-.38q-.7,0-1.47,0l26.39-26.39q0,.77,0,1.47v.38Zm11.1-47.13,1.22.7L301.73,31a9.7,9.7,0,0,0-1.68-.21Zm-6.91,46.71q-1.08.21-2.16.31L324.5,44.26q-.1,1.08-.31,2.16Zm9.32-45.28,1.08.77-10,10.05a8.11,8.11,0,0,0-1.33-.56Zm2.16,1.64q.49.42,1,.87l-9.81,9.81a8.72,8.72,0,0,0-1.08-.8Zm-6,41.93a28.37,28.37,0,0,1-3,1.08L323.55,49a28.37,28.37,0,0,1-1.08,3Zm7.92-40.11q.45.49.87,1l-9.85,9.88q-.42-.56-.84-1Zm1.75,2q.42.52.8,1.08L310,37.87q-.28-.66-.59-1.29Zm2.86,4.71q.31.66.56,1.33l-12.64,12.6a9.71,9.71,0,0,0,.49-2.34Zm-1.33-2.44q.35.56.7,1.19L310.71,41a12.68,12.68,0,0,0-.24-1.64Zm-1.08,27.58a24.16,24.16,0,0,1-5.59,5.62Z"/></svg>