<?xml version="1.0" encoding="utf-8"?>
<!-- Generator: Adobe Illustrator 20.1.0, SVG Export Plug-In . SVG Version: 6.00 Build 0)  -->
<svg version="1.1" id="Layer_1" xmlns="http://www.w3.org/2000/svg" xmlns:xlink="http://www.w3.org/1999/xlink" x="0px" y="0px"
	 viewBox="0 0 380 214" style="enable-background:new 0 0 380 214;" xml:space="preserve">
<style type="text/css">
	.st0{fill:#FFFFFF;}
	.st1{fill:#6E5942;}
	.st2{fill:#E3CBA6;}
	.st3{fill:#C2A885;}
	.st4{fill:#9C8365;}
	.st5{fill:#547B38;}
	.st6{fill:#719F40;}
	.st7{fill:#D2B893;}
	.st8{fill:#C0A581;}
	.st9{fill:#BDA585;}
	.st10{fill:#897056;}
	.st11{fill:#93B83E;}
	.st12{clip-path:url(#XMLID_5_);fill:#547B38;}
	.st13{clip-path:url(#XMLID_5_);fill:#93B83E;}
	.st14{fill:#89431E;}
	.st15{fill:#426731;}
	.st16{fill:#374D22;}
</style>
<g>
	<defs>
		<rect id="XMLID_26_" x="-9.2" y="-9" width="400" height="231.3"/>
	</defs>
	<linearGradient id="XMLID_2_" gradientUnits="userSpaceOnUse" x1="190.7902" y1="-21.7902" x2="190.7902" y2="287.576">
		<stop  offset="0" style="stop-color:#86D4EE"/>
		<stop  offset="1" style="stop-color:#7FBBE6"/>
	</linearGradient>
	<use xlink:href="#XMLID_26_"  style="overflow:visible;fill:url(#XMLID_2_);"/>
	<clipPath id="XMLID_3_">
		<use xlink:href="#XMLID_26_"  style="overflow:visible;"/>
	</clipPath>
</g>
<g>
	<defs>
		<rect id="XMLID_113_" x="-9.2" y="38.4" width="400" height="183.9"/>
	</defs>
	<clipPath id="XMLID_4_">
		<use xlink:href="#XMLID_113_"  style="overflow:visible;"/>
	</clipPath>
</g>
<g>
	<g>
		<path class="st0" d="M119.6,70.6c-1.2-5.1-5.7-8.9-11.2-9c-3,0-5.8,1.1-7.9,3c-2.8-4.8-8-8-14-8c-6.3,0-11.8,3.5-14.6,8.8
			c-1.3-0.8-2.9-1.3-4.6-1.3c-3.9,0-7.3,2.6-8.4,6.1L119.6,70.6z"/>
		<path class="st0" d="M302.6,122.8c-0.9-4.2-4.7-7.3-9.1-7.3c-2.5,0-4.7,0.9-6.4,2.5c-2.3-3.9-6.5-6.5-11.4-6.5
			c-5.2,0-9.6,2.9-11.9,7.1c-1.1-0.7-2.3-1-3.7-1.1c-3.2,0-5.9,2.1-6.9,5L302.6,122.8z"/>
		<polygon class="st1" points="47.6,161.3 68.7,156 86.8,156 97.1,149.9 278.3,149.9 285.1,153.3 294.2,153.3 303.7,150.3 
			311.3,150.3 322.1,161.4 		"/>
		<g>
			<polygon class="st2" points="103.4,69.4 186.5,42.9 186.5,50.5 192.4,50.5 200.3,57.6 269.7,69.5 			"/>
			<polygon class="st3" points="186.5,42.9 186.5,69.5 103.4,69.5 			"/>
			<polygon class="st3" points="217.2,69.5 269.7,69.5 217.2,60.5 			"/>
		</g>
		<polygon class="st3" points="192.4,50.5 200.3,57.6 192.4,57.6 		"/>
		<polygon class="st4" points="186.5,42.9 137.6,69.6 102.8,69.6 		"/>
		<polygon class="st1" points="217.2,60.5 230.5,65.5 269.7,69.5 		"/>
		<g>
			<rect x="192.7" y="61.3" class="st1" width="2" height="1.5"/>
		</g>
		<g>
			<rect x="207.3" y="64.8" class="st1" width="3.5" height="1.5"/>
		</g>
		<g>
			<rect x="201.6" y="59.9" class="st1" width="1.9" height="1.5"/>
		</g>
		<g>
			<rect x="163.3" y="64" class="st1" width="3.7" height="1.5"/>
		</g>
		<g>
			<rect x="175.5" y="53.3" class="st1" width="3" height="1.5"/>
		</g>
		<g>
			<rect x="223.3" y="66.4" class="st1" width="3.7" height="1.5"/>
		</g>
		<g>
			<rect x="129.5" y="65.5" class="st1" width="3.7" height="1.5"/>
		</g>
		<rect x="47.6" y="172.8" class="st2" width="274.4" height="20.6"/>
		<rect x="47.6" y="161.4" class="st5" width="274.4" height="11.4"/>
		<polygon class="st6" points="47.6,172.8 322.1,161.4 47.6,161.3 		"/>
		<rect x="89.4" y="158.4" class="st2" width="193.6" height="3"/>
		<rect x="92.7" y="155.6" class="st2" width="187.1" height="2.9"/>
		<rect x="96.2" y="152.8" class="st2" width="180.1" height="2.8"/>
		<rect x="99.8" y="149.8" class="st2" width="172.9" height="3.1"/>
		<polygon class="st7" points="47.6,172.7 73.6,179.1 116.7,175.5 152.7,181.3 174.6,181.3 194.3,175.1 225,178.2 250,174.6 
			287,181.7 322.1,172.7 		"/>
		<polygon class="st8" points="47.6,184.6 73.6,172.4 47.6,166 		"/>
		<polygon class="st8" points="174.6,181.3 194.3,175.1 225,178.2 		"/>
		<polygon class="st8" points="287,181.7 306,181.7 322.1,172.7 		"/>
		<polygon class="st8" points="152.7,181.3 121.7,181.3 116.7,175.5 		"/>
		<path class="st4" d="M47.6,191.3l74-10.1l200.4,10.1C322.1,191.3,47.8,191.2,47.6,191.3z"/>
		<rect x="102.5" y="73.9" class="st2" width="167.1" height="12.2"/>
		<rect x="102.5" y="86.1" class="st4" width="167.1" height="2.1"/>
		<g>
			<polygon class="st7" points="113.9,147.6 103.8,147.6 104.7,90.4 113,90.4 			"/>
			<polygon class="st2" points="109,90.4 104.7,90.4 103.8,147.6 109,147.6 			"/>
			<rect x="102.5" y="88.2" class="st7" width="12.7" height="2.2"/>
			<rect x="102.5" y="147.6" class="st9" width="12.7" height="2.2"/>
			<polygon class="st7" points="115.2,90.4 113,90.4 113.1,92 			"/>
			<polygon class="st9" points="102.5,90.4 104.7,92 113.1,92 115.2,90.4 			"/>
			<polygon class="st2" points="102.5,90.4 115.2,88.2 102.5,88.2 			"/>
			<polygon class="st1" points="115.2,90.4 112.7,90.4 110.3,92 113.1,92 			"/>
			<polygon class="st4" points="104.7,92 102.5,90.4 106.4,92 			"/>
			<path class="st9" d="M112.7,90.4l2.6-2.2v2.2C115.2,90.4,112.7,90.4,112.7,90.4z"/>
			<polygon class="st4" points="110.3,92 113.9,147.6 113.1,92 			"/>
			<path class="st7" d="M106.4,92l-2.6,55.5l0.9-55.5C104.7,92,106.5,91.9,106.4,92z"/>
			<g>
				<rect x="108.5" y="93.5" class="st4" width="0.8" height="52.4"/>
			</g>
			<rect x="110.6" y="93.5" class="st1" width="0.8" height="52.4"/>
			<g>
				<rect x="106.1" y="93.5" class="st4" width="0.8" height="52.4"/>
			</g>
			<polygon class="st2" points="102.5,147.6 102.5,149.8 115.2,149.8 			"/>
			<polygon class="st4" points="102.5,147.6 115.2,147.6 113.9,146.9 103.8,146.9 			"/>
			<path class="st9" d="M102.5,149.8v-1.3l7.9,1.3C110.4,149.8,102.6,149.8,102.5,149.8z"/>
		</g>
		<g>
			<polygon class="st7" points="136,147.6 125.9,147.6 126.8,90.4 135.1,90.4 			"/>
			<polygon class="st2" points="131,90.4 126.8,90.4 125.9,147.6 131,147.6 			"/>
			<rect x="124.6" y="88.2" class="st7" width="12.7" height="2.2"/>
			<rect x="124.6" y="147.6" class="st9" width="12.7" height="2.2"/>
			<polygon class="st7" points="137.3,90.4 135.1,90.4 135.1,92 			"/>
			<polygon class="st9" points="124.6,90.4 126.7,92 135.1,92 137.3,90.4 			"/>
			<polygon class="st2" points="124.6,90.4 137.3,88.2 124.6,88.2 			"/>
			<polygon class="st1" points="137.3,90.4 134.7,90.4 132.3,92 135.1,92 			"/>
			<polygon class="st4" points="126.7,92 124.6,90.4 128.5,92 			"/>
			<path class="st9" d="M134.7,90.4l2.6-2.2v2.2C137.3,90.4,134.7,90.4,134.7,90.4z"/>
			<polygon class="st4" points="132.3,92 136,147.6 135.1,92 			"/>
			<path class="st7" d="M128.5,92l-2.6,55.5l0.9-55.5C126.7,92,128.5,91.9,128.5,92z"/>
			<g>
				<rect x="130.6" y="93.5" class="st4" width="0.8" height="52.4"/>
			</g>
			<rect x="132.6" y="93.5" class="st1" width="0.8" height="52.4"/>
			<g>
				<rect x="128.2" y="93.5" class="st4" width="0.8" height="52.4"/>
			</g>
			<polygon class="st2" points="124.6,147.6 124.6,149.8 137.3,149.8 			"/>
			<polygon class="st4" points="124.6,147.6 137.3,147.6 135.9,146.9 125.9,146.9 			"/>
			<path class="st9" d="M124.6,149.8v-1.3l7.9,1.3C132.5,149.8,124.6,149.8,124.6,149.8z"/>
		</g>
		<g>
			<polygon class="st7" points="158,147.6 147.9,147.6 148.8,90.4 157.1,90.4 			"/>
			<polygon class="st2" points="153.1,90.4 148.8,90.4 147.9,147.6 153.1,147.6 			"/>
			<rect x="146.6" y="88.2" class="st7" width="12.7" height="2.2"/>
			<rect x="146.6" y="147.6" class="st9" width="12.7" height="2.2"/>
			<polygon class="st7" points="159.3,90.4 157.1,90.4 157.1,92 			"/>
			<polygon class="st9" points="146.6,90.4 148.8,92 157.1,92 159.3,90.4 			"/>
			<polygon class="st2" points="146.6,90.4 159.3,88.2 146.6,88.2 			"/>
			<polygon class="st1" points="159.3,90.4 156.8,90.4 154.4,92 157.1,92 			"/>
			<polygon class="st4" points="148.8,92 146.6,90.4 150.5,92 			"/>
			<path class="st9" d="M156.8,90.4l2.6-2.2v2.2C159.3,90.4,156.8,90.4,156.8,90.4z"/>
			<polygon class="st4" points="154.4,92 158,147.6 157.1,92 			"/>
			<path class="st7" d="M150.5,92l-2.6,55.5l0.9-55.5C148.8,92,150.6,91.9,150.5,92z"/>
			<g>
				<rect x="152.6" y="93.5" class="st4" width="0.8" height="52.4"/>
			</g>
			<rect x="154.7" y="93.5" class="st1" width="0.8" height="52.4"/>
			<g>
				<rect x="150.2" y="93.5" class="st4" width="0.8" height="52.4"/>
			</g>
			<polygon class="st2" points="146.6,147.6 146.6,149.8 159.3,149.8 			"/>
			<polygon class="st4" points="146.6,147.6 159.3,147.6 158,146.9 147.9,146.9 			"/>
			<path class="st9" d="M146.6,149.8v-1.3l7.9,1.3C154.5,149.8,146.7,149.8,146.6,149.8z"/>
		</g>
		<g>
			<polygon class="st7" points="180,147.6 170,147.6 170.9,90.4 179.2,90.4 			"/>
			<polygon class="st2" points="175.1,90.4 170.9,90.4 170,147.6 175.1,147.6 			"/>
			<rect x="168.7" y="88.2" class="st7" width="12.7" height="2.2"/>
			<rect x="168.7" y="147.6" class="st9" width="12.7" height="2.2"/>
			<polygon class="st7" points="181.3,90.4 179.1,90.4 179.2,92 			"/>
			<polygon class="st9" points="168.7,90.4 170.8,92 179.2,92 181.3,90.4 			"/>
			<polygon class="st2" points="168.7,90.4 181.4,88.2 168.7,88.2 			"/>
			<polygon class="st1" points="181.3,90.4 178.8,90.4 176.4,92 179.2,92 			"/>
			<polygon class="st4" points="170.8,92 168.7,90.4 172.5,92 			"/>
			<path class="st9" d="M178.8,90.4l2.6-2.2v2.2C181.4,90.4,178.8,90.4,178.8,90.4z"/>
			<polygon class="st4" points="176.4,92 180,147.6 179.2,92 			"/>
			<path class="st7" d="M172.5,92l-2.6,55.5l0.9-55.5C170.8,92,172.6,91.9,172.5,92z"/>
			<g>
				<rect x="174.6" y="93.5" class="st4" width="0.8" height="52.4"/>
			</g>
			<rect x="176.7" y="93.5" class="st1" width="0.8" height="52.4"/>
			<g>
				<rect x="172.3" y="93.5" class="st4" width="0.8" height="52.4"/>
			</g>
			<polygon class="st2" points="168.7,147.6 168.7,149.8 181.4,149.8 			"/>
			<polygon class="st4" points="168.7,147.6 181.4,147.6 180,146.9 170,146.9 			"/>
			<path class="st9" d="M168.7,149.8v-1.3l7.9,1.3C176.5,149.8,168.7,149.8,168.7,149.8z"/>
		</g>
		<g>
			<polygon class="st7" points="202.1,147.6 192,147.6 192.9,90.4 201.2,90.4 			"/>
			<polygon class="st2" points="197.1,90.4 192.9,90.4 192,147.6 197.1,147.6 			"/>
			<rect x="190.7" y="88.2" class="st7" width="12.7" height="2.2"/>
			<rect x="190.7" y="147.6" class="st9" width="12.7" height="2.2"/>
			<polygon class="st7" points="203.4,90.4 201.2,90.4 201.2,92 			"/>
			<polygon class="st9" points="190.7,90.4 192.9,92 201.2,92 203.4,90.4 			"/>
			<polygon class="st2" points="190.7,90.4 203.4,88.2 190.7,88.2 			"/>
			<polygon class="st1" points="203.4,90.4 200.8,90.4 198.5,92 201.2,92 			"/>
			<polygon class="st4" points="192.9,92 190.7,90.4 194.6,92 			"/>
			<path class="st9" d="M200.8,90.4l2.6-2.2v2.2C203.4,90.4,200.9,90.4,200.8,90.4z"/>
			<polygon class="st4" points="198.5,92 202.1,147.6 201.2,92 			"/>
			<path class="st7" d="M194.6,92l-2.6,55.5l0.9-55.5C192.9,92,194.7,91.9,194.6,92z"/>
			<g>
				<rect x="196.7" y="93.5" class="st4" width="0.8" height="52.4"/>
			</g>
			<rect x="198.8" y="93.5" class="st1" width="0.8" height="52.4"/>
			<g>
				<rect x="194.3" y="93.5" class="st4" width="0.8" height="52.4"/>
			</g>
			<polygon class="st2" points="190.7,147.6 190.7,149.8 203.4,149.8 			"/>
			<polygon class="st4" points="190.7,147.6 203.4,147.6 202,146.9 192,146.9 			"/>
			<path class="st9" d="M190.7,149.8v-1.3l7.9,1.3C198.6,149.8,190.7,149.8,190.7,149.8z"/>
		</g>
		<g>
			<polygon class="st7" points="224.1,147.6 214,147.6 214.9,90.4 223.2,90.4 			"/>
			<polygon class="st2" points="219.2,90.4 214.9,90.4 214,147.6 219.2,147.6 			"/>
			<rect x="212.7" y="88.2" class="st7" width="12.7" height="2.2"/>
			<rect x="212.7" y="147.6" class="st9" width="12.7" height="2.2"/>
			<polygon class="st7" points="225.4,90.4 223.2,90.4 223.3,92 			"/>
			<polygon class="st9" points="212.7,90.4 214.9,92 223.3,92 225.4,90.4 			"/>
			<polygon class="st2" points="212.7,90.4 225.5,88.2 212.7,88.2 			"/>
			<polygon class="st1" points="225.4,90.4 222.9,90.4 220.5,92 223.3,92 			"/>
			<polygon class="st4" points="214.9,92 212.7,90.4 216.6,92 			"/>
			<path class="st9" d="M222.9,90.4l2.6-2.2v2.2C225.5,90.4,222.9,90.4,222.9,90.4z"/>
			<polygon class="st4" points="220.5,92 224.1,147.6 223.3,92 			"/>
			<path class="st7" d="M216.6,92l-2.6,55.5l0.9-55.5C214.9,92,216.7,91.9,216.6,92z"/>
			<g>
				<rect x="218.7" y="93.5" class="st4" width="0.8" height="52.4"/>
			</g>
			<rect x="220.8" y="93.5" class="st1" width="0.8" height="52.4"/>
			<g>
				<rect x="216.4" y="93.5" class="st4" width="0.8" height="52.4"/>
			</g>
			<polygon class="st2" points="212.7,147.6 212.7,149.8 225.5,149.8 			"/>
			<polygon class="st4" points="212.7,147.6 225.5,147.6 224.1,146.9 214,146.9 			"/>
			<path class="st9" d="M212.7,149.8v-1.3l7.9,1.3C220.6,149.8,212.8,149.8,212.7,149.8z"/>
		</g>
		<g>
			<polygon class="st7" points="246.2,147.6 236.1,147.6 237,90.4 245.3,90.4 			"/>
			<polygon class="st2" points="241.2,90.4 237,90.4 236.1,147.6 241.2,147.6 			"/>
			<rect x="234.8" y="88.2" class="st7" width="12.7" height="2.2"/>
			<rect x="234.8" y="147.6" class="st9" width="12.7" height="2.2"/>
			<polygon class="st7" points="247.5,90.4 245.3,90.4 245.3,92 			"/>
			<polygon class="st9" points="234.8,90.4 236.9,92 245.3,92 247.5,90.4 			"/>
			<polygon class="st2" points="234.8,90.4 247.5,88.2 234.8,88.2 			"/>
			<polygon class="st1" points="247.5,90.4 244.9,90.4 242.6,92 245.3,92 			"/>
			<polygon class="st4" points="236.9,92 234.8,90.4 238.7,92 			"/>
			<path class="st9" d="M244.9,90.4l2.6-2.2v2.2C247.5,90.4,245,90.4,244.9,90.4z"/>
			<polygon class="st4" points="242.6,92 246.2,147.6 245.3,92 			"/>
			<path class="st7" d="M238.7,92l-2.6,55.5l0.9-55.5C236.9,92,238.8,91.9,238.7,92z"/>
			<g>
				<rect x="240.8" y="93.5" class="st4" width="0.8" height="52.4"/>
			</g>
			<rect x="242.9" y="93.5" class="st1" width="0.8" height="52.4"/>
			<g>
				<rect x="238.4" y="93.5" class="st4" width="0.8" height="52.4"/>
			</g>
			<polygon class="st2" points="234.8,147.6 234.8,149.8 247.5,149.8 			"/>
			<polygon class="st4" points="234.8,147.6 247.5,147.6 246.1,146.9 236.1,146.9 			"/>
			<path class="st9" d="M234.8,149.8v-1.3l7.9,1.3C242.7,149.8,234.8,149.8,234.8,149.8z"/>
		</g>
		<g>
			<polygon class="st7" points="268.2,147.6 258.1,147.6 259,90.4 267.3,90.4 			"/>
			<polygon class="st2" points="263.3,90.4 259,90.4 258.1,147.6 263.3,147.6 			"/>
			<rect x="256.8" y="88.2" class="st7" width="12.7" height="2.2"/>
			<rect x="256.8" y="147.6" class="st9" width="12.7" height="2.2"/>
			<polygon class="st7" points="269.5,90.4 267.3,90.4 267.4,92 			"/>
			<polygon class="st9" points="256.8,90.4 259,92 267.4,92 269.5,90.4 			"/>
			<polygon class="st2" points="256.8,90.4 269.5,88.2 256.8,88.2 			"/>
			<polygon class="st1" points="269.5,90.4 267,90.4 264.6,92 267.4,92 			"/>
			<polygon class="st4" points="259,92 256.8,90.4 260.7,92 			"/>
			<path class="st9" d="M267,90.4l2.6-2.2v2.2C269.5,90.4,267,90.4,267,90.4z"/>
			<polygon class="st4" points="264.6,92 268.2,147.6 267.4,92 			"/>
			<path class="st7" d="M260.7,92l-2.6,55.5L259,92C259,92,260.8,91.9,260.7,92z"/>
			<g>
				<rect x="262.8" y="93.5" class="st4" width="0.8" height="52.4"/>
			</g>
			<rect x="264.9" y="93.5" class="st1" width="0.8" height="52.4"/>
			<g>
				<rect x="260.4" y="93.5" class="st4" width="0.8" height="52.4"/>
			</g>
			<polygon class="st2" points="256.8,147.6 256.8,149.8 269.5,149.8 			"/>
			<polygon class="st4" points="256.8,147.6 269.5,147.6 268.2,146.9 258.1,146.9 			"/>
			<path class="st9" d="M256.8,149.8v-1.3l7.9,1.3C264.7,149.8,256.9,149.8,256.8,149.8z"/>
		</g>
		<rect x="102.5" y="73.9" class="st7" width="84.1" height="12.2"/>
		<rect x="89.4" y="158.4" class="st7" width="97.2" height="3"/>
		<rect x="92.7" y="155.6" class="st7" width="94" height="2.9"/>
		<rect x="96.2" y="152.8" class="st7" width="90.4" height="2.8"/>
		<rect x="99.8" y="149.8" class="st7" width="86.9" height="3.1"/>
		<rect x="99.8" y="152.1" class="st1" width="172.9" height="1"/>
		<rect x="92.7" y="157.6" class="st1" width="187.1" height="1"/>
		<rect x="96.2" y="154.8" class="st1" width="180.1" height="0.9"/>
		<path class="st3" d="M102.5,86.1L186.6,75h-84C102.6,75,102.5,86.6,102.5,86.1z"/>
		<g>
			<rect x="106.8" y="74.2" class="st4" width="3.2" height="6.7"/>
			<rect x="129.1" y="74.2" class="st4" width="3.2" height="6.7"/>
			<rect x="151.4" y="74.2" class="st4" width="3.2" height="6.7"/>
		</g>
		<g>
			<rect x="173.1" y="74.2" class="st4" width="3.2" height="6.7"/>
			<rect x="195.3" y="74.2" class="st4" width="3.2" height="6.7"/>
			<rect x="217.6" y="74.2" class="st4" width="3.2" height="6.7"/>
			<rect x="239.3" y="74.2" class="st4" width="3.2" height="6.7"/>
			<rect x="261.6" y="74.2" class="st4" width="3.2" height="6.7"/>
		</g>
		<rect x="99.5" y="69.5" class="st4" width="173.1" height="5.6"/>
		<rect x="99.5" y="69.5" class="st10" width="87" height="5.6"/>
		<rect x="99.5" y="73.2" class="st1" width="173.1" height="1.8"/>
		<g>
			<rect x="158.9" y="82.2" class="st1" width="4.8" height="1.5"/>
		</g>
		<g>
			<rect x="204.5" y="77.1" class="st1" width="2.5" height="1.5"/>
		</g>
		<g>
			<rect x="231.2" y="83.1" class="st1" width="3.4" height="1.5"/>
		</g>
		<g>
			<rect x="117.1" y="79" class="st1" width="1.9" height="1.5"/>
		</g>
		<path class="st10" d="M99.8,152.1l86.9-2.3H99.8C99.8,149.8,99.8,152,99.8,152.1z"/>
		<polygon class="st1" points="99.5,73.2 110.4,69.5 99.5,69.5 		"/>
		<polygon class="st1" points="137.6,69.5 141.5,71.1 145.3,69.5 		"/>
		<polygon class="st1" points="200.3,57.6 192.4,50.5 196.6,57.7 		"/>
		<polygon class="st7" points="193.6,172.6 248.2,167 285.5,172.6 264,174.2 214.2,174.7 		"/>
		<polygon class="st1" points="248.2,167 193.6,172.6 161,172.6 		"/>
		<path class="st1" d="M285.5,172.6l7.7-7.7l15.4,1.2l8.1-1.5h5.3v8C322,172.7,285.5,172.4,285.5,172.6z"/>
		<polygon class="st8" points="293.2,165 308.2,169.8 316.7,164.7 308.6,166.2 		"/>
		<polygon class="st2" points="308.2,163.1 322,166 322,158 316.7,158 		"/>
		<polygon class="st4" points="293.2,165 298.4,172.6 322,172.7 		"/>
		<polygon class="st1" points="308.6,159.5 306.2,159.3 316.7,158 		"/>
		<g>
			<rect x="315.1" y="162.1" class="st1" width="2" height="1.5"/>
		</g>
		<g>
			<rect x="300.3" y="163" class="st1" width="1.9" height="1.5"/>
		</g>
		<g>
			<rect x="306.9" y="160.2" class="st1" width="2.5" height="1.5"/>
		</g>
		<g>
			<rect x="319.4" y="158.5" class="st1" width="2" height="1.5"/>
		</g>
		<g>
			<polygon class="st8" points="47.6,172.7 59.2,165.9 80.6,165.9 83.6,168.3 87.8,168.3 90.8,165.3 93.8,165.3 101.8,172.7 			"/>
			<polygon class="st10" points="47.6,172.7 59.2,165.9 63.4,165.9 51,172.8 			"/>
			<polygon class="st2" points="101.8,172.7 90.8,165.3 93.8,165.3 			"/>
			<polygon class="st7" points="80.6,165.9 63.4,165.9 84.3,172.7 87.8,168.3 83.6,168.3 			"/>
			<polygon class="st2" points="80.6,165.9 81.8,168.3 83.6,168.3 			"/>
			<polygon class="st1" points="90.8,165.3 83.6,168.3 87.8,168.3 			"/>
			<polygon class="st1" points="59.2,165.9 51,172.8 47.6,172.7 			"/>
			<g>
				<rect x="60.9" y="169.4" class="st1" width="4.8" height="1.5"/>
			</g>
			<g>
				<rect x="73.1" y="166.9" class="st1" width="2.5" height="1.5"/>
			</g>
			<g>
				<rect x="90.2" y="169.7" class="st1" width="2.5" height="1.5"/>
			</g>
		</g>
		<g>
			<polygon class="st8" points="126.7,169.7 135.4,164.6 151.3,164.6 153.6,166.4 156.7,166.4 159,164.2 161.2,164.2 167.2,169.7 
							"/>
			<polygon class="st10" points="126.7,169.7 135.4,164.6 138.5,164.6 129.2,169.8 			"/>
			<polygon class="st2" points="167.2,169.7 159,164.2 161.2,164.2 			"/>
			<polygon class="st7" points="151.3,164.6 138.5,164.6 154.1,169.7 156.7,166.4 153.6,166.4 			"/>
			<polygon class="st2" points="151.3,164.6 152.2,166.4 153.6,166.4 			"/>
			<polygon class="st1" points="159,164.2 153.6,166.4 156.7,166.4 			"/>
			<polygon class="st1" points="135.4,164.6 129.2,169.8 126.7,169.7 			"/>
			<g>
				<rect x="136.6" y="167.1" class="st1" width="3.6" height="1.5"/>
			</g>
			<g>
				<rect x="145.7" y="165.2" class="st1" width="1.9" height="1.5"/>
			</g>
			<g>
				<rect x="158.5" y="167.3" class="st1" width="1.9" height="1.5"/>
			</g>
		</g>
		<g>
			<polygon class="st8" points="269.5,161.4 278,156.4 293.6,156.4 295.8,158.2 298.8,158.2 301,156 303.3,156 309.1,161.4 			"/>
			<polygon class="st10" points="269.5,161.4 278,156.4 281,156.4 272,161.4 			"/>
			<polygon class="st2" points="309.1,161.4 301,156 303.3,156 			"/>
			<polygon class="st7" points="293.6,156.4 281,156.4 296.3,161.4 298.8,158.2 295.8,158.2 			"/>
			<polygon class="st2" points="293.6,156.4 294.4,158.2 295.8,158.2 			"/>
			<polygon class="st1" points="301,156 295.8,158.2 298.8,158.2 			"/>
			<polygon class="st1" points="278,156.4 272,161.4 269.5,161.4 			"/>
			<g>
				<rect x="279.2" y="158.7" class="st1" width="3.5" height="1.5"/>
			</g>
			<g>
				<rect x="288.1" y="156.9" class="st1" width="1.8" height="1.5"/>
			</g>
			<g>
				<rect x="300.6" y="159" class="st1" width="1.8" height="1.5"/>
			</g>
		</g>
		<path class="st0" d="M243.1,32.7C241.6,26,235.6,21,228.4,21c-4,0-7.6,1.5-10.3,4c-3.7-6.3-10.6-10.5-18.4-10.5
			c-8.3,0-15.5,4.6-19.1,11.5c-1.7-1.1-3.8-1.7-6-1.7c-5.2,0-9.6,3.4-11.1,8L243.1,32.7z"/>
		<path class="st0" d="M76.5,121.6c-0.5-2.2-2.5-3.9-4.9-3.9c-1.3,0-2.5,0.5-3.4,1.3c-1.2-2.1-3.5-3.5-6.1-3.5
			c-2.8,0-5.2,1.6-6.4,3.9c-0.6-0.4-1.3-0.6-2-0.6c-1.7,0-3.2,1.1-3.7,2.7L76.5,121.6z"/>
		<path class="st0" d="M314.1,63.3c-0.5-2.2-2.5-3.9-4.9-3.9c-1.3,0-2.5,0.5-3.4,1.3c-1.2-2.1-3.5-3.5-6.1-3.5
			c-2.8,0-5.2,1.6-6.4,3.9c-0.6-0.4-1.3-0.6-2-0.6c-1.7,0-3.2,1.1-3.7,2.7L314.1,63.3z"/>
	</g>
	<g>
		<path class="st5" d="M89.6,178.8c-1-4.4-5-7.8-9.7-7.8c-0.3,0-0.5,0-0.8,0c0-0.2,0.1-0.4,0.1-0.7c0-2.6-2.1-4.6-4.6-4.6
			c-1.4,0-2.6,0.6-3.5,1.6c-2.9-2.4-6.6-3.9-10.6-3.9c-4.5,0-8.5,1.8-11.5,4.7c-0.7-0.6-1.6-0.9-2.5-0.9c-2.1,0-3.9,1.7-3.9,3.9
			c0,0,0,0.1,0,0.1c-0.6-0.1-1.3-0.2-1.9-0.2c-3.4,0-6.5,1.7-8.3,4.4c-0.8-0.4-1.6-0.6-2.6-0.6c-2.6,0-4.7,1.7-5.5,4H89.6z"/>
		<path class="st11" d="M49.9,179.7c0.1,0,0.2-0.1,0.1-0.2c-1.1-4.4-5.1-7.7-9.8-7.7c-0.3,0-0.5,0-0.8,0c0.2-1.3,0-2.7-3-4.8
			c-0.6-0.4-1.2-0.6-1.9-0.6c-1.3,0.1-2.4,0.6-3.2,1.5c0,0.1-0.1,0.1-0.2,0c-2.9-2.4-6.6-3.9-10.7-3.9c-4.5,0-8.6,1.8-11.6,4.7
			c0,0-0.1,0-0.2,0c-1.1-0.9-2.8-1.2-4.5-0.4c-1.3,0.7-2,2.1-1.9,3.5l0,0c-0.6-0.1-1.3-0.2-2-0.2c-3.4,0-6.5,1.7-8.3,4.3
			c0,0.1-0.1,0.1-0.2,0c-0.8-0.4-1.6-0.6-2.5-0.6c-2.5,0-4.7,1.6-5.5,3.9c0,0.1,0,0.2,0.1,0.2H49.9z"/>
		<path class="st11" d="M280.2,179.2h96c1.1-0.8,1.9-2.2,1.9-3.7c0-2.1-1.5-3.9-3.4-4.4c1.6-0.2,2.8-1.5,2.8-3.1
			c0-1.8-1.4-3.2-3.2-3.2c-0.8,0-1.6,0.3-2.2,0.9c-0.9-3.9-4.4-6.9-8.5-7c0-0.2,0.1-0.4,0.1-0.7c0-1.8-1.4-3.2-3.2-3.2
			c-1.2,0-2.3,0.7-2.8,1.7c-1.6-1.7-4-2.8-6.5-2.8c-2.6,0-5,1.1-6.7,3c-0.4-2.2-2.4-3.9-4.8-3.9c-1.5,0-2.7,0.6-3.6,1.6
			c-1.3-0.7-2.8-1.2-4.4-1.2c-4,0-7.3,2.6-8.6,6.1c-0.1-2.6-2.2-4.7-4.9-4.7c-1.1,0-2.2,0.4-3,1c-0.4-2.3-2.4-4-4.8-4
			c-1.8,0-3.4,1-4.3,2.5c-0.8-0.6-1.7-1-2.8-1c-2.5,0-4.6,2-4.6,4.6c0,1.1,0.4,2.1,1.1,2.9c-1,0.8-1.9,1.7-2.6,2.7
			c-0.4-1.4-1.6-2.4-3.1-2.4c-1.8,0-3.2,1.4-3.2,3.2c0,0.1,0,0.2,0,0.3c-3,0.6-5.3,2.9-5.9,5.9c-0.7-0.5-1.6-0.7-2.6-0.7
			c-2.7,0-5,2.2-5,5C277.5,176.7,278.6,178.4,280.2,179.2z"/>
		<path class="st5" d="M346.8,180.6c-1.1-5.1-5.7-8.8-11.1-8.8c-0.3,0-0.6,0-0.9,0c0-0.2,0.1-0.5,0.1-0.8c0-2.9-2.4-5.2-5.3-5.2
			c-1.6,0-3,0.7-3.9,1.8c-3.2-2.8-7.4-4.4-12-4.4c-5.1,0-9.7,2-13.1,5.4c-0.8-0.7-1.8-1.1-2.9-1.1c-2.4,0-4.4,2-4.4,4.4
			c0,0,0,0.1,0,0.1c-0.7-0.1-1.4-0.2-2.2-0.2c-3.9,0-7.3,2-9.4,5c-0.9-0.4-1.9-0.7-2.9-0.7c-2.9,0-5.3,1.9-6.2,4.5H346.8z"/>
	</g>
	<g>
		<defs>
			<path id="XMLID_25_" d="M391.9,226.5H-11.2c-4.9,0-8.9-34.5-8.9-39.4l0,0c0-4.9,4-8.9,8.9-8.9h403.2c4.9,0,8.9,4,8.9,8.9l0,0
				C400.8,192,396.8,226.5,391.9,226.5z"/>
		</defs>
		<use xlink:href="#XMLID_25_"  style="overflow:visible;fill:#426731;"/>
		<clipPath id="XMLID_5_">
			<use xlink:href="#XMLID_25_"  style="overflow:visible;"/>
		</clipPath>
		<rect x="-20.2" y="177" class="st12" width="421" height="12.4"/>
		<rect x="-20.2" y="171.3" class="st13" width="421" height="12.4"/>
	</g>
	<g>
		<g>
			<rect x="54.8" y="172.1" class="st14" width="2.6" height="9"/>
			<polygon class="st15" points="63.8,174.1 48.8,174.1 54.4,122.4 57.7,122.4 			"/>
			<polygon class="st5" points="56.2,174.1 63.8,174.1 57.7,122.4 56.2,122.4 			"/>
			<g>
				<rect x="57.1" y="150.1" class="st16" width="2.6" height="2.3"/>
			</g>
			<g>
				<rect x="52.7" y="140.5" class="st16" width="2.6" height="1.6"/>
			</g>
			<g>
				<rect x="53.7" y="159.6" class="st16" width="2.6" height="2.3"/>
			</g>
			<g>
				<rect x="59.5" y="167" class="st16" width="2.6" height="2.3"/>
			</g>
			<g>
				<rect x="50.9" y="167.9" class="st16" width="2.6" height="2.3"/>
			</g>
			<g>
				<rect x="55.7" y="129.9" class="st16" width="2.6" height="1.6"/>
			</g>
		</g>
		<g>
			<rect x="75.7" y="170.4" class="st14" width="3.1" height="10.7"/>
			<polygon class="st15" points="86.4,174.1 68.5,174.1 75.2,111.2 79.1,111.2 			"/>
			<polygon class="st5" points="77.3,174.1 86.4,174.1 79.1,111.2 77.3,111.2 			"/>
			<g>
				<rect x="78.6" y="144.2" class="st16" width="2.6" height="2.7"/>
			</g>
			<g>
				<rect x="73.4" y="132.7" class="st16" width="2.6" height="1.9"/>
			</g>
			<g>
				<rect x="74.6" y="155.5" class="st16" width="2.6" height="2.7"/>
			</g>
			<g>
				<rect x="81.6" y="164.3" class="st16" width="2.6" height="2.7"/>
			</g>
			<g>
				<rect x="71.3" y="165.4" class="st16" width="2.6" height="2.7"/>
			</g>
			<g>
				<rect x="76.9" y="120.1" class="st16" width="2.6" height="1.9"/>
			</g>
			<g>
				<rect x="12.1" y="173.2" class="st14" width="3.1" height="7.9"/>
				<path class="st5" d="M24.8,174.1l-2.5-46.1c0-5.6-3-12.6-8.7-12.6c-5.6,0-8.6,7-8.6,12.6l-2.4,46.2L24.8,174.1z"/>
				<path class="st15" d="M13.7,115.3c-5.6,0-8.6,7-8.6,12.6l-2.4,46.2l11.1,0L13.7,115.3z"/>
				<g>
					<rect x="17" y="139.9" class="st16" width="2.6" height="2.7"/>
				</g>
				<g>
					<rect x="7.9" y="127.7" class="st16" width="2.6" height="1.9"/>
				</g>
				<g>
					<rect x="8" y="148.6" class="st16" width="2.6" height="2.7"/>
				</g>
				<g>
					<rect x="7.1" y="163.8" class="st16" width="2.6" height="2.7"/>
				</g>
				<g>
					<rect x="6.8" y="137.9" class="st16" width="2.6" height="2.7"/>
				</g>
				<g>
					<rect x="19.1" y="169.7" class="st16" width="2.6" height="1.9"/>
				</g>
				<g>
					<rect x="16" y="156.8" class="st16" width="2.6" height="2.7"/>
				</g>
				<g>
					<rect x="17" y="125.5" class="st16" width="2.6" height="2.7"/>
				</g>
			</g>
		</g>
		<g>
			<rect x="27.2" y="172.1" class="st14" width="2.6" height="9"/>
			<polygon class="st15" points="36.2,174.1 21.2,174.1 26.8,122.4 30,122.4 			"/>
			<polygon class="st5" points="28.5,174.1 36.2,174.1 30,122.4 28.5,122.4 			"/>
			<g>
				<rect x="29.4" y="150.1" class="st16" width="2.6" height="2.3"/>
			</g>
			<g>
				<rect x="25.1" y="140.5" class="st16" width="2.6" height="1.6"/>
			</g>
			<g>
				<rect x="26.1" y="159.6" class="st16" width="2.6" height="2.3"/>
			</g>
			<g>
				<rect x="31.9" y="167" class="st16" width="2.6" height="2.3"/>
			</g>
			<g>
				<rect x="23.3" y="167.9" class="st16" width="2.6" height="2.3"/>
			</g>
			<g>
				<rect x="28" y="129.9" class="st16" width="2.6" height="1.6"/>
			</g>
		</g>
		<g>
			<rect x="323.3" y="170.5" class="st14" width="3.1" height="10.5"/>
			<polygon class="st15" points="333.8,173 316.3,173 322.8,112.5 326.6,112.5 			"/>
			<polygon class="st5" points="324.9,173 333.8,173 326.6,112.5 324.9,112.5 			"/>
			<g>
				<rect x="325.9" y="144.9" class="st16" width="3" height="2.7"/>
			</g>
			<g>
				<rect x="320.8" y="133.6" class="st16" width="3" height="1.9"/>
			</g>
			<g>
				<rect x="322" y="156" class="st16" width="3" height="2.7"/>
			</g>
			<g>
				<rect x="328.8" y="164.6" class="st16" width="3" height="2.7"/>
			</g>
			<g>
				<rect x="318.7" y="165.7" class="st16" width="3" height="2.7"/>
			</g>
			<g>
				<rect x="324.3" y="121.2" class="st16" width="3" height="1.9"/>
			</g>
		</g>
		<g>
			<rect x="338" y="168.5" class="st14" width="3.7" height="12.5"/>
			<polygon class="st15" points="350.5,172.9 329.6,172.9 337.4,99.3 341.9,99.3 			"/>
			<polygon class="st5" points="339.9,172.9 350.5,172.9 341.9,99.3 339.9,99.3 			"/>
			<g>
				<rect x="341.4" y="137.9" class="st16" width="3" height="3.2"/>
			</g>
			<g>
				<rect x="335.3" y="124.5" class="st16" width="3" height="2.2"/>
			</g>
			<g>
				<rect x="336.8" y="151.2" class="st16" width="3" height="3.2"/>
			</g>
			<g>
				<rect x="344.9" y="161.5" class="st16" width="3" height="3.2"/>
			</g>
			<g>
				<rect x="332.8" y="162.7" class="st16" width="3" height="3.2"/>
			</g>
			<g>
				<rect x="339.5" y="109.8" class="st16" width="3" height="2.2"/>
			</g>
		</g>
		<g>
			<rect x="370.3" y="171.8" class="st14" width="3.7" height="9.3"/>
			<path class="st5" d="M385.1,172.9l-2.9-54c0-6.5-3.6-14.8-10.1-14.8c-6.5,0-10.1,8.2-10.1,14.8l-2.9,54L385.1,172.9z"/>
			<path class="st15" d="M372.1,104.2c-6.5,0-10.1,8.2-10.1,14.8l-2.9,54l13,0L372.1,104.2z"/>
			<g>
				<rect x="376" y="132.9" class="st16" width="3" height="3.2"/>
			</g>
			<g>
				<rect x="365.3" y="118.6" class="st16" width="3" height="2.2"/>
			</g>
			<g>
				<rect x="365.5" y="143.1" class="st16" width="3" height="3.2"/>
			</g>
			<g>
				<rect x="364.4" y="160.9" class="st16" width="3" height="3.2"/>
			</g>
			<g>
				<rect x="364.1" y="130.6" class="st16" width="3" height="3.2"/>
			</g>
			<g>
				<rect x="378.5" y="167.8" class="st16" width="3" height="2.2"/>
			</g>
			<g>
				<rect x="374.9" y="152.7" class="st16" width="3" height="3.2"/>
			</g>
			<g>
				<rect x="376" y="116.1" class="st16" width="3" height="3.2"/>
			</g>
		</g>
	</g>
</g>
</svg>
